<svg width="122" height="17" viewBox="0 0 122 17" fill="none" xmlns="http://www.w3.org/2000/svg">
<path d="M1.35355 0.646444L1 0.292892L0.292893 0.999998L0.646447 1.35355L1.35355 0.646444ZM16 16L15.6464 16.3536L16 16.7071L16.3536 16.3536L16 16ZM31 0.999998L31.3536 0.646444L31 0.292892L30.6464 0.646444L31 0.999998ZM46 16L45.6465 16.3536L46 16.7071L46.3536 16.3536L46 16ZM61 0.999998L61.3536 0.646444L61 0.292892L60.6465 0.646444L61 0.999998ZM76 16L75.6465 16.3536L76 16.7071L76.3536 16.3536L76 16ZM91 0.999998L91.3536 0.646444L91 0.292892L90.6465 0.646444L91 0.999998ZM106 16L105.646 16.3536L106 16.7071L106.354 16.3536L106 16ZM121.354 1.35355C121.549 1.15829 121.549 0.841707 121.354 0.646444C121.158 0.451182 120.842 0.451182 120.646 0.646444L121.354 1.35355ZM0.646447 1.35355L15.6464 16.3536L16.3536 15.6464L1.35355 0.646444L0.646447 1.35355ZM16.3536 16.3536L31.3536 1.35355L30.6464 0.646444L15.6464 15.6464L16.3536 16.3536ZM30.6464 1.35355L45.6465 16.3536L46.3536 15.6464L31.3536 0.646444L30.6464 1.35355ZM46.3536 16.3536L61.3536 1.35355L60.6465 0.646444L45.6465 15.6464L46.3536 16.3536ZM60.6465 1.35355L75.6465 16.3536L76.3536 15.6464L61.3536 0.646444L60.6465 1.35355ZM76.3536 16.3536L91.3536 1.35355L90.6465 0.646444L75.6465 15.6464L76.3536 16.3536ZM90.6465 1.35355L105.646 16.3536L106.354 15.6464L91.3536 0.646444L90.6465 1.35355ZM106.354 16.3536L121.354 1.35355L120.646 0.646444L105.646 15.6464L106.354 16.3536Z" fill="white"/>
</svg>
