<svg width="20" height="20" viewBox="0 0 20 20" fill="none" xmlns="http://www.w3.org/2000/svg">
<path d="M-3.12637e-05 2.92972L-3.06456e-05 17.0703C-3.0575e-05 18.6856 1.31436 20 2.92966 20L17.0703 20C18.6856 20 20 18.6856 20 17.0703L20 11.1719L12.9297 11.1719L12.9297 13.5157L9.41403 13.5157L9.41403 11.1719L7.03122 11.1719C5.09259 11.1719 3.51559 9.59491 3.51559 7.65628L3.51559 4.10159L7.03122 4.10159L7.03122 7.65628L9.41403 7.65628L9.41403 4.10159L12.9297 4.68753L12.9297 7.65628L20 7.65628L20 2.92972C20 1.31442 18.6856 2.97008e-05 17.0703 2.97714e-05L2.92966 3.03895e-05C1.31436 3.04601e-05 -3.13344e-05 1.31442 -3.12637e-05 2.92972Z" fill="white"/>
</svg>
