<svg width="20" height="20" viewBox="0 0 20 20" fill="none" xmlns="http://www.w3.org/2000/svg">
<path d="M-3.11186e-05 6.25003L-3.07908e-05 13.75C-3.06399e-05 17.2013 2.79872 20 6.24997 20L13.75 20C17.2012 20 20 17.2013 20 13.75L20 6.25003C20 2.79878 17.2012 2.97657e-05 13.75 2.99165e-05L6.24997 3.02444e-05C2.79872 3.03952e-05 -3.12695e-05 2.79878 -3.11186e-05 6.25003ZM13.75 1.87503C16.1625 1.87503 18.125 3.83753 18.125 6.25003L18.125 13.75C18.125 16.1625 16.1625 18.125 13.75 18.125L6.24997 18.125C3.83747 18.125 1.87497 16.1625 1.87497 13.75L1.87497 6.25003C1.87497 3.83753 3.83747 1.87503 6.24997 1.87503L13.75 1.87503Z" fill="white"/>
<path d="M4.99997 10C4.99997 12.7613 7.23872 15 9.99997 15C12.7612 15 15 12.7613 15 10C15 7.23878 12.7612 5.00003 9.99997 5.00003C7.23872 5.00003 4.99997 7.23878 4.99997 10ZM13.125 10C13.125 11.7225 11.7225 13.125 9.99997 13.125C8.27622 13.125 6.87497 11.7225 6.87497 10C6.87497 8.27753 8.27622 6.87503 9.99997 6.87503C11.7225 6.87503 13.125 8.27753 13.125 10Z" fill="white"/>
<path d="M5.2912 4.62503C5.2912 4.25707 4.99292 3.95878 4.62496 3.95878C4.257 3.95878 3.95871 4.25707 3.95871 4.62503C3.95871 4.99299 4.257 5.29128 4.62496 5.29128C4.99292 5.29128 5.2912 4.99299 5.2912 4.62503Z" fill="white"/>
</svg>
