<svg width="46" height="65" viewBox="0 0 46 65" fill="none" xmlns="http://www.w3.org/2000/svg">
<path d="M22.9719 65L4.18631 59.7793L-3.05176e-05 12.7742H46.0001L41.8093 59.7722L22.9719 65Z" fill="#4353AD"/>
<path d="M38.2216 56.7794L41.8024 16.6177H22.9999V61.0039L38.2216 56.7794" fill="#485FB5"/>
<path d="M22.9999 49.0235L22.9747 49.03L16.5613 47.2964L16.1513 42.6987H10.3704L11.1771 51.7505L22.9735 55.0288L22.9999 55.0215V49.0235ZM8.55988 22.3827L9.08334 28.1476H22.9999V22.3827H8.55988ZM9.59701 34.051L10.1131 39.816H22.9999V34.051H9.59701" fill="#EDEDED"/>
<path d="M27.5654 6.34491e-05H34.5403V2.53905H30.4823V3.04709H34.5403V8.88672H27.5654V6.22052H31.6235V5.71288H27.5656V6.34491e-05H27.5654ZM19.1956 6.34491e-05H26.1703V2.53905H22.1124V3.04709H26.1703V8.88672H19.1958V6.22052H23.2538V5.71288H19.1954V6.34491e-05H19.1956ZM10.8259 6.34491e-05H17.8005V2.91988H13.7427V5.84009H17.8008V8.75991H10.8259V6.34491e-05Z" fill="white"/>
<path d="M36.3662 34.0512L37.4056 22.3829H22.9801V28.1477H31.0947L30.5708 34.0512H22.9801V39.8162H30.0714L29.4026 47.2932L22.9799 49.0284V55.0261L34.7856 51.7507L34.872 50.7769L36.2257 35.5992L36.3662 34.0512Z" fill="white"/>
</svg>
