<svg width="31" height="31" viewBox="0 0 31 31" fill="none" xmlns="http://www.w3.org/2000/svg">
<path fill-rule="evenodd" clip-rule="evenodd" d="M15.7745 30.5088C24.0936 30.5088 30.8375 23.7931 30.8375 15.5088C30.8375 7.22452 24.0936 0.508789 15.7745 0.508789C7.45551 0.508789 0.711609 7.22452 0.711609 15.5088C0.711609 17.0368 0.941045 18.5115 1.36748 19.9005C1.4763 19.92 1.65224 19.9646 1.9086 20.0394L1.50828 13.7668C1.50828 13.6518 1.70304 13.5966 1.88147 13.5459C1.9794 13.5181 2.07241 13.4917 2.12561 13.4576C2.27088 13.3661 5.26252 14.4539 5.42233 14.5261L9.24794 16.2494C10.2358 15.6284 11.4174 15.3781 12.5796 15.5466L16.0566 11.3251C16.1001 7.95563 18.8604 5.24079 22.255 5.23597C25.4269 5.26967 28.0564 7.67644 28.3566 10.8101C28.6762 14.1988 26.1775 17.2024 22.7683 17.525L16.9766 21.6405C16.6231 23.4456 15.3253 24.9234 13.5723 25.5106C10.8847 26.4156 7.96466 24.9811 7.05911 22.3048L5.04461 21.6405C4.89525 21.5933 2.1538 20.4576 1.41123 20.0405C3.34045 26.1098 9.04162 30.5088 15.7745 30.5088ZM25.3545 11.3972C25.3545 13.0986 23.9669 14.4779 22.2552 14.4779C20.5435 14.4779 19.1559 13.0986 19.1559 11.3972C19.1559 9.69581 20.5435 8.31655 22.2552 8.31655C23.9669 8.31655 25.3545 9.69581 25.3545 11.3972ZM24.3235 11.3972C24.3235 12.5324 23.3977 13.4526 22.2557 13.4526C21.1137 13.4526 20.1879 12.5324 20.1879 11.3972C20.1879 10.2621 21.1137 9.34186 22.2557 9.34186C23.3977 9.34186 24.3235 10.2621 24.3235 11.3972ZM10.5804 23.4119C10.9968 23.6141 11.4568 23.72 11.9217 23.72C12.2752 23.72 12.619 23.6622 12.958 23.5515C13.7376 23.282 14.372 22.7188 14.7303 21.9823C15.4761 20.4468 14.8272 18.608 13.2873 17.8667C13.0258 17.7416 12.7207 17.8475 12.5948 18.1026C12.4689 18.3625 12.5754 18.6658 12.8321 18.7909C12.866 18.8054 12.8999 18.8198 12.9338 18.8391C13.9507 19.3589 14.3429 20.596 13.82 21.6068C13.297 22.6177 12.0476 23.0076 11.0356 22.4877C10.7741 22.3626 10.469 22.4685 10.3431 22.7236C10.2172 22.9835 10.3237 23.2868 10.5804 23.4119Z" fill="#FFB548"/>
</svg>
