<svg width="20" height="19" viewBox="0 0 20 19" fill="none" xmlns="http://www.w3.org/2000/svg">
<path fill-rule="evenodd" clip-rule="evenodd" d="M19.9602 13.6255V9.55405V0.68042H2.93894L0.811279 2.97712V15.087H6.13043V18.8453H8.47085L11.024 16.131H17.407L19.9602 13.6255ZM7.40694 13.4168H4.00268C3.76864 13.4168 3.57715 13.2289 3.57715 12.9992V2.76841C3.57715 2.53874 3.76864 2.35083 4.00268 2.35083H17.6197C17.8537 2.35083 18.0452 2.53874 18.0452 2.76841V10.7025C18.0452 10.8173 18.0027 10.9217 17.9229 11L15.5825 13.2967C15.5027 13.375 15.391 13.4168 15.2793 13.4168H11.3697L8.07183 15.6404C8.00268 15.6874 7.91757 15.7135 7.83247 15.7135C7.76332 15.7135 7.69949 15.6978 7.63566 15.6665C7.49204 15.5934 7.40694 15.4525 7.40694 15.2959V13.4168Z" fill="white"/>
<path d="M13.79 9.76298V5.58716H12.0878V9.76298H13.79ZM9.53465 9.76298V5.58716H7.83252V9.76298H9.53465Z" fill="white"/>
</svg>
