<svg width="22" height="17" viewBox="0 0 22 17" fill="none" xmlns="http://www.w3.org/2000/svg">
<path fill-rule="evenodd" clip-rule="evenodd" d="M21.2138 2.42991C20.4408 2.75191 19.6098 2.96691 18.7388 3.06491C19.6288 2.56491 20.3118 1.77291 20.6338 0.830912C19.7998 1.29291 18.8778 1.62891 17.8958 1.81091C17.1108 1.02491 15.9898 0.534912 14.7508 0.534912C12.3708 0.534912 10.4398 2.34391 10.4398 4.57391C10.4398 4.89091 10.4778 5.19991 10.5518 5.49491C6.96981 5.32591 3.79381 3.71791 1.66781 1.27491C1.29681 1.87191 1.08481 2.56491 1.08481 3.30591C1.08481 4.70591 1.84581 5.94391 3.00181 6.66791C2.29581 6.64591 1.63181 6.46491 1.04981 6.16191C1.04981 6.17991 1.04981 6.19491 1.04981 6.21391C1.04981 8.17091 2.53481 9.80291 4.50681 10.1739C4.14581 10.2659 3.76381 10.3139 3.37181 10.3139C3.09381 10.3139 2.82381 10.2899 2.56081 10.2439C3.10881 11.8469 4.70081 13.0159 6.58681 13.0489C5.11181 14.1319 3.25381 14.7769 1.23381 14.7769C0.885811 14.7769 0.542811 14.7579 0.205811 14.7209C2.11281 15.8659 4.37881 16.5359 6.81281 16.5359C14.7408 16.5359 19.0758 10.3799 19.0758 5.04291C19.0758 4.86691 19.0708 4.69391 19.0628 4.51991C19.9048 3.94991 20.6358 3.23891 21.2138 2.42991Z" fill="white"/>
</svg>
