<svg width="31" height="31" viewBox="0 0 31 31" fill="none" xmlns="http://www.w3.org/2000/svg">
<path d="M10.5512 3.15848C12.1355 3.77969 13.6669 4.60017 15.1103 5.60231C15.2746 5.71367 15.4623 5.77227 15.6501 5.77227C15.8379 5.77227 16.0256 5.71367 16.1899 5.60231C17.6333 4.60017 19.1647 3.77383 20.749 3.15262C21.1069 3.01196 21.3474 2.66033 21.3416 2.27354C21.3416 1.88674 21.101 1.54097 20.7372 1.40618C17.5688 0.204775 13.7314 0.204775 10.5688 1.40618C10.2109 1.54097 9.96448 1.89261 9.96448 2.27354C9.96448 2.65447 10.1874 3.01783 10.5512 3.15848Z" fill="#FFB548"/>
<path d="M24.1586 3.16371C23.8593 2.95859 23.4779 2.94101 23.1552 3.12268C21.4008 4.13069 19.7051 5.28521 18.1033 6.55695C17.892 6.7269 17.763 6.9789 17.7512 7.24849C17.7395 7.51807 17.8451 7.78179 18.0387 7.96933C21.3597 11.1282 25.9599 20.8156 27.016 25.2696C24.7277 21.4016 19.623 12.3003 16.2843 9.18832C15.9264 8.85427 15.3631 8.85427 15.0052 9.18832C11.6607 12.3003 6.57358 21.4075 4.28524 25.2813C5.34139 20.8273 9.9298 11.1282 13.2508 7.96933C13.4503 7.78179 13.5559 7.51807 13.5442 7.24849C13.5325 6.9789 13.4034 6.7269 13.1921 6.55695C11.5903 5.28521 9.88873 4.13069 8.14021 3.12268C7.82923 2.94101 7.4361 2.95859 7.13686 3.16371C3.05893 5.97089 0.623901 10.5831 0.623901 15.506C0.623901 19.1043 1.92063 22.5737 4.28524 25.2813C7.11339 28.5984 11.25 30.5089 15.6448 30.5089C20.0396 30.5089 24.182 28.6042 27.016 25.2754C29.3689 22.5796 30.6656 19.1102 30.6656 15.506C30.6656 10.5831 28.2306 5.97089 24.1586 3.16371Z" fill="#FFB548"/>
</svg>
