<svg width="124" height="128" viewBox="0 0 124 128" fill="none" xmlns="http://www.w3.org/2000/svg">
<path d="M2 0C0.895431 0 0 0.895431 0 2C0 3.10457 0.895431 4 2 4C3.10457 4 4 3.10457 4 2C4 0.895431 3.10457 0 2 0Z" fill="white"/>
<path d="M2 40C0.895431 40 0 40.8954 0 42C0 43.1046 0.895431 44 2 44C3.10457 44 4 43.1046 4 42C4 40.8954 3.10457 40 2 40Z" fill="white"/>
<path d="M4 80C1.79086 80 0 81.7909 0 84C0 86.2091 1.79086 88 4 88C6.20914 88 8 86.2091 8 84C8 81.7909 6.20914 80 4 80Z" fill="white"/>
<path d="M4 120C1.79086 120 0 121.791 0 124C0 126.209 1.79086 128 4 128C6.20914 128 8 126.209 8 124C8 121.791 6.20914 120 4 120Z" fill="white"/>
<path d="M42 0C40.8954 0 40 0.895431 40 2C40 3.10457 40.8954 4 42 4C43.1046 4 44 3.10457 44 2C44 0.895431 43.1046 0 42 0Z" fill="white"/>
<path d="M42 40C40.8954 40 40 40.8954 40 42C40 43.1046 40.8954 44 42 44C43.1046 44 44 43.1046 44 42C44 40.8954 43.1046 40 42 40Z" fill="white"/>
<path d="M44 80C41.7909 80 40 81.7909 40 84C40 86.2091 41.7909 88 44 88C46.2091 88 48 86.2091 48 84C48 81.7909 46.2091 80 44 80Z" fill="white"/>
<path d="M44 120C41.7909 120 40 121.791 40 124C40 126.209 41.7909 128 44 128C46.2091 128 48 126.209 48 124C48 121.791 46.2091 120 44 120Z" fill="white"/>
<path d="M122 0C120.895 0 120 0.895431 120 2C120 3.10457 120.895 4 122 4C123.105 4 124 3.10457 124 2C124 0.895431 123.105 0 122 0Z" fill="white"/>
<path d="M122 40C120.895 40 120 40.8954 120 42C120 43.1046 120.895 44 122 44C123.105 44 124 43.1046 124 42C124 40.8954 123.105 40 122 40Z" fill="white"/>
<path d="M122 80C120.895 80 120 80.8954 120 82C120 83.1046 120.895 84 122 84C123.105 84 124 83.1046 124 82C124 80.8954 123.105 80 122 80Z" fill="white"/>
<path d="M122 120C120.895 120 120 120.895 120 122C120 123.105 120.895 124 122 124C123.105 124 124 123.105 124 122C124 120.895 123.105 120 122 120Z" fill="white"/>
<path d="M82 0C80.8954 0 80 0.895431 80 2C80 3.10457 80.8954 4 82 4C83.1046 4 84 3.10457 84 2C84 0.895431 83.1046 0 82 0Z" fill="white"/>
<path d="M82 40C80.8954 40 80 40.8954 80 42C80 43.1046 80.8954 44 82 44C83.1046 44 84 43.1046 84 42C84 40.8954 83.1046 40 82 40Z" fill="white"/>
<path d="M82 80C80.8954 80 80 80.8954 80 82C80 83.1046 80.8954 84 82 84C83.1046 84 84 83.1046 84 82C84 80.8954 83.1046 80 82 80Z" fill="white"/>
<path d="M82 120C80.8954 120 80 120.895 80 122C80 123.105 80.8954 124 82 124C83.1046 124 84 123.105 84 122C84 120.895 83.1046 120 82 120Z" fill="white"/>
</svg>
