<svg width="17" height="121" viewBox="0 0 17 121" fill="none" xmlns="http://www.w3.org/2000/svg">
<path d="M0.646446 120.646L0.292893 121L1 121.707L1.35355 121.354L0.646446 120.646ZM16 106L16.3536 106.354L16.7071 106L16.3536 105.646L16 106ZM1 91L0.646446 90.6464L0.292893 91L0.646446 91.3536L1 91ZM16 76L16.3536 76.3536L16.7071 76L16.3536 75.6464L16 76ZM1 61L0.646446 60.6464L0.292893 61L0.646446 61.3536L1 61ZM16 46L16.3536 46.3536L16.7071 46L16.3536 45.6464L16 46ZM1 31L0.646446 30.6464L0.292893 31L0.646446 31.3536L1 31ZM16 16L16.3536 16.3536L16.7071 16L16.3536 15.6464L16 16ZM1.35355 0.646446C1.15829 0.451187 0.841709 0.451187 0.646446 0.646446C0.451184 0.841705 0.451184 1.15829 0.646446 1.35355L1.35355 0.646446ZM1.35355 121.354L16.3536 106.354L15.6464 105.646L0.646446 120.646L1.35355 121.354ZM16.3536 105.646L1.35355 90.6464L0.646446 91.3536L15.6464 106.354L16.3536 105.646ZM1.35355 91.3536L16.3536 76.3536L15.6464 75.6464L0.646446 90.6464L1.35355 91.3536ZM16.3536 75.6464L1.35355 60.6464L0.646446 61.3536L15.6464 76.3536L16.3536 75.6464ZM1.35355 61.3536L16.3536 46.3536L15.6464 45.6464L0.646446 60.6464L1.35355 61.3536ZM16.3536 45.6464L1.35355 30.6464L0.646446 31.3536L15.6464 46.3536L16.3536 45.6464ZM1.35355 31.3536L16.3536 16.3536L15.6464 15.6464L0.646446 30.6464L1.35355 31.3536ZM16.3536 15.6464L1.35355 0.646446L0.646446 1.35355L15.6464 16.3536L16.3536 15.6464Z" fill="white"/>
</svg>
