<svg width="682" height="334" fill="none" xmlns="http://www.w3.org/2000/svg"><g filter="url(#filter0_b_1_133)"><rect x="72" width="610" height="334" rx="16" fill="#35068C"/></g><path d="M294.004 54V43.818h3.818c.783 0 1.439.146 1.969.438a2.9 2.9 0 011.208 1.203c.275.507.413 1.084.413 1.73 0 .653-.138 1.233-.413 1.74a2.947 2.947 0 01-1.218 1.198c-.537.288-1.198.433-1.983.433h-2.531v-1.517h2.282c.457 0 .832-.08 1.124-.238a1.51 1.51 0 00.646-.657c.142-.278.214-.598.214-.96 0-.36-.072-.678-.214-.954a1.45 1.45 0 00-.651-.641c-.292-.156-.668-.234-1.129-.234h-1.69V54h-1.845zm8.93 0v-7.636h1.746v1.272h.079c.139-.44.378-.78.716-1.019a1.97 1.97 0 011.168-.363c.1 0 .211.005.333.015.126.007.231.018.314.035v1.655a1.92 1.92 0 00-.363-.07 3.35 3.35 0 00-.473-.034c-.328 0-.623.071-.885.214a1.57 1.57 0 00-.611.582 1.64 1.64 0 00-.224.86V54h-1.8zm5.551 0v-7.636h1.8V54h-1.8zm.905-8.72a1.05 1.05 0 01-.736-.284.915.915 0 01-.308-.69c0-.272.103-.503.308-.692.206-.192.451-.288.736-.288.288 0 .534.096.736.288.205.19.308.42.308.691a.915.915 0 01-.308.691 1.039 1.039 0 01-.736.284zm6.077 8.87c-.763 0-1.417-.168-1.964-.503a3.35 3.35 0 01-1.258-1.387c-.292-.593-.437-1.276-.437-2.048 0-.776.149-1.46.447-2.054a3.336 3.336 0 011.263-1.392c.547-.334 1.193-.502 1.939-.502.619 0 1.168.115 1.645.343a2.81 2.81 0 011.149.96c.285.41.447.891.487 1.441h-1.72a1.651 1.651 0 00-.497-.92c-.259-.248-.605-.372-1.039-.372-.368 0-.692.1-.97.298-.278.196-.495.477-.651.845-.153.368-.229.81-.229 1.323 0 .52.076.968.229 1.342.152.371.366.658.641.86.279.2.605.298.98.298.265 0 .502-.05.71-.149.213-.102.39-.25.532-.442.143-.192.241-.426.294-.701h1.72a2.999 2.999 0 01-.477 1.437c-.275.414-.65.739-1.124.974-.474.232-1.031.348-1.67.348zm8.129 0c-.765 0-1.426-.16-1.983-.478a3.228 3.228 0 01-1.278-1.362c-.298-.59-.447-1.285-.447-2.083 0-.786.149-1.475.447-2.069a3.389 3.389 0 011.263-1.392c.54-.334 1.175-.502 1.904-.502.471 0 .915.076 1.332.229.421.149.792.381 1.114.696.325.315.58.716.766 1.203.185.484.278 1.06.278 1.73v.552h-6.259v-1.213h4.534a1.93 1.93 0 00-.224-.92 1.632 1.632 0 00-.611-.641 1.72 1.72 0 00-.905-.234c-.368 0-.691.09-.97.269a1.853 1.853 0 00-.651.696c-.152.285-.23.598-.234.94v1.058c0 .444.082.826.244 1.144.162.315.389.556.681.726.292.165.633.248 1.024.248.262 0 .499-.036.711-.11.212-.075.396-.187.552-.332a1.39 1.39 0 00.353-.542l1.68.189a2.622 2.622 0 01-.606 1.163 2.957 2.957 0 01-1.134.766c-.46.179-.987.268-1.581.268zm100.124-6.896h-1.86a2.323 2.323 0 00-.293-.81 2.19 2.19 0 00-.532-.607 2.213 2.213 0 00-.726-.373 2.826 2.826 0 00-.87-.13 2.64 2.64 0 00-1.472.418c-.427.275-.762.68-1.004 1.213-.242.53-.363 1.178-.363 1.944 0 .779.121 1.435.363 1.969.245.53.58.931 1.004 1.203.428.268.917.403 1.467.403.305 0 .59-.04.855-.12.269-.082.509-.203.721-.363a2.211 2.211 0 00.85-1.382l1.86.01c-.07.484-.221.938-.453 1.363a4.028 4.028 0 01-.9 1.123 4.146 4.146 0 01-1.302.756 4.859 4.859 0 01-1.656.268c-.895 0-1.693-.207-2.396-.621-.703-.415-1.256-1.013-1.661-1.795-.404-.782-.606-1.72-.606-2.814 0-1.097.204-2.035.611-2.814.408-.782.963-1.38 1.666-1.795.702-.414 1.498-.621 2.386-.621.567 0 1.094.08 1.581.239.487.159.922.392 1.303.7.381.305.694.68.939 1.124.249.441.411.945.488 1.512zm3.409 2.272V54h-1.8V43.818h1.76v3.843h.09c.179-.43.455-.77.83-1.019.378-.252.858-.378 1.442-.378.53 0 .992.111 1.387.333.394.222.699.547.914.975.219.427.329.95.329 1.566V54h-1.8v-4.584c0-.513-.133-.913-.398-1.198-.262-.288-.63-.433-1.104-.433-.318 0-.603.07-.855.21a1.46 1.46 0 00-.586.59c-.14.26-.209.573-.209.94zm8.983 4.628c-.483 0-.919-.086-1.307-.258a2.135 2.135 0 01-.915-.776c-.222-.341-.333-.762-.333-1.263 0-.43.08-.787.239-1.069.159-.281.376-.507.651-.676.275-.169.585-.296.93-.383.348-.09.707-.154 1.079-.194.447-.046.81-.087 1.088-.124.279-.04.481-.1.607-.179.129-.083.194-.21.194-.383v-.03c0-.374-.111-.664-.333-.87-.222-.205-.542-.308-.96-.308-.441 0-.79.096-1.049.289a1.435 1.435 0 00-.517.68l-1.68-.238c.132-.464.351-.852.656-1.163.305-.315.678-.55 1.119-.706.44-.16.928-.239 1.461-.239.368 0 .734.043 1.099.13.364.086.698.228.999.427.302.196.544.462.726.8.186.338.278.761.278 1.268V54h-1.73v-1.049h-.059a2.21 2.21 0 01-.463.597 2.21 2.21 0 01-.74.442c-.295.11-.642.164-1.04.164zm.468-1.322c.361 0 .674-.072.939-.214a1.58 1.58 0 00.612-.577c.146-.238.219-.499.219-.78v-.9a.857.857 0 01-.289.13 4.029 4.029 0 01-.447.103c-.166.03-.33.057-.492.08l-.423.06a3.148 3.148 0 00-.721.179 1.2 1.2 0 00-.502.348c-.123.145-.184.334-.184.566 0 .332.121.582.363.751.242.17.55.254.925.254zm7.174-3.306V54h-1.8v-7.636h1.72v1.297h.09c.175-.427.455-.767.84-1.019.388-.252.867-.378 1.437-.378.527 0 .986.113 1.377.338.394.226.699.552.915.98.218.427.326.946.323 1.556V54h-1.8v-4.584c0-.51-.132-.91-.398-1.198-.261-.288-.624-.433-1.088-.433-.315 0-.595.07-.841.21a1.445 1.445 0 00-.571.59c-.136.26-.204.573-.204.94zm10.052 7.497c-.646 0-1.201-.088-1.665-.264-.464-.172-.837-.404-1.119-.696a2.412 2.412 0 01-.586-.97l1.62-.392c.073.15.179.297.319.443.139.149.326.271.561.367.239.1.539.15.9.15.511 0 .933-.125 1.268-.373.335-.246.502-.65.502-1.213v-1.447h-.089a2.564 2.564 0 01-.408.572c-.176.195-.409.36-.701.492-.288.132-.651.199-1.089.199a3.142 3.142 0 01-1.596-.413c-.474-.278-.852-.693-1.133-1.243-.279-.553-.418-1.246-.418-2.078 0-.839.139-1.546.418-2.123.281-.58.661-1.02 1.138-1.317a2.927 2.927 0 011.596-.453c.448 0 .815.076 1.104.229.291.149.524.33.696.542.172.209.303.406.393.591h.099v-1.262h1.775v7.76c0 .653-.156 1.194-.467 1.621-.312.428-.738.747-1.278.96-.54.212-1.154.318-1.84.318zm.015-4.544c.381 0 .706-.093.975-.279.268-.185.472-.452.611-.8.139-.348.209-.766.209-1.253 0-.48-.07-.901-.209-1.263-.136-.361-.338-.641-.606-.84-.265-.202-.592-.303-.98-.303-.401 0-.736.104-1.004.313a1.903 1.903 0 00-.607.86 3.505 3.505 0 00-.203 1.233c0 .467.068.877.203 1.228.14.348.344.62.612.815.272.193.605.289.999.289zm8.795 1.67c-.766 0-1.427-.159-1.984-.477a3.232 3.232 0 01-1.277-1.362c-.299-.59-.448-1.285-.448-2.083 0-.786.149-1.475.448-2.069a3.38 3.38 0 011.262-1.392c.541-.334 1.175-.502 1.905-.502.47 0 .914.076 1.332.229.421.149.792.381 1.114.696.324.315.58.716.765 1.203.186.484.279 1.06.279 1.73v.552h-6.26v-1.213h4.534a1.93 1.93 0 00-.223-.92 1.627 1.627 0 00-.612-.641 1.717 1.717 0 00-.905-.234c-.367 0-.691.09-.969.269a1.845 1.845 0 00-.651.696 1.993 1.993 0 00-.234.94v1.058c0 .444.081.826.244 1.144.162.315.389.556.681.726.291.165.633.248 1.024.248.262 0 .499-.036.711-.11.212-.075.396-.187.552-.332.155-.146.273-.327.353-.542l1.68.189a2.622 2.622 0 01-.606 1.163 2.957 2.957 0 01-1.134.766c-.461.179-.988.268-1.581.268zm94.751-10.331l2.65 8.014h.104l2.645-8.014h2.028L561.205 54h-2.277l-3.585-10.182h2.024zm11.199 10.331c-.745 0-1.392-.164-1.939-.492a3.343 3.343 0 01-1.272-1.377c-.299-.59-.448-1.28-.448-2.068 0-.79.149-1.48.448-2.074a3.335 3.335 0 011.272-1.382c.547-.328 1.194-.492 1.939-.492.746 0 1.392.164 1.939.492a3.3 3.3 0 011.268 1.383c.302.593.453 1.284.453 2.073 0 .788-.151 1.478-.453 2.068a3.308 3.308 0 01-1.268 1.377c-.547.328-1.193.492-1.939.492zm.01-1.442c.405 0 .743-.11 1.015-.333.271-.225.474-.527.606-.905a3.7 3.7 0 00.204-1.262c0-.468-.068-.89-.204-1.268a2.007 2.007 0 00-.606-.91c-.272-.225-.61-.338-1.015-.338-.414 0-.759.113-1.034.338a2.04 2.04 0 00-.611.91 3.8 3.8 0 00-.199 1.268c0 .464.066.885.199 1.262.136.378.339.68.611.905.275.222.62.333 1.034.333zm6.977-8.889V54h-1.8V43.818h1.8zm6.718 6.97v-4.424h1.799V54h-1.745v-1.357h-.079a2.303 2.303 0 01-.85 1.049c-.391.272-.874.407-1.447.407-.501 0-.943-.11-1.328-.333a2.31 2.31 0 01-.894-.98c-.216-.43-.324-.95-.324-1.56v-4.862h1.8v4.583c0 .484.133.869.398 1.154.265.285.613.427 1.044.427.265 0 .522-.064.77-.194.249-.129.453-.321.612-.576.162-.259.244-.582.244-.97zm3.65 3.212v-7.636h1.72v1.297h.09c.159-.437.422-.779.79-1.024.368-.248.807-.373 1.318-.373.517 0 .952.126 1.307.378.358.249.61.588.756 1.02h.079c.169-.425.454-.763.855-1.015.405-.255.884-.383 1.437-.383.703 0 1.276.222 1.72.666.445.444.667 1.093.667 1.944V54h-1.805v-4.847c0-.474-.126-.82-.378-1.04a1.35 1.35 0 00-.925-.332c-.434 0-.774.135-1.019.407-.242.269-.363.618-.363 1.05V54h-1.765v-4.922c0-.394-.119-.71-.358-.945-.235-.235-.543-.352-.924-.352-.259 0-.494.066-.706.198-.212.13-.381.314-.507.552-.126.236-.189.51-.189.825V54h-1.8zm15.945.15c-.765 0-1.427-.16-1.984-.478a3.232 3.232 0 01-1.277-1.362c-.299-.59-.448-1.285-.448-2.083 0-.786.149-1.475.448-2.069a3.375 3.375 0 011.263-1.392c.54-.334 1.175-.502 1.904-.502.47 0 .914.076 1.332.229.421.149.792.381 1.114.696.325.315.58.716.765 1.203.186.484.279 1.06.279 1.73v.552h-6.26v-1.213h4.535a1.942 1.942 0 00-.224-.92 1.627 1.627 0 00-.612-.641 1.716 1.716 0 00-.904-.234c-.368 0-.692.09-.97.269a1.853 1.853 0 00-.651.696 1.993 1.993 0 00-.234.94v1.058c0 .444.081.826.244 1.144.162.315.389.556.681.726.292.165.633.248 1.024.248.262 0 .499-.036.711-.11.212-.075.396-.187.552-.332a1.39 1.39 0 00.353-.542l1.68.189a2.622 2.622 0 01-.606 1.163 2.957 2.957 0 01-1.134.766c-.461.179-.988.268-1.581.268zm8.838-4.301c0-1.243.164-2.385.493-3.426a9.862 9.862 0 011.476-2.893h1.695c-.251.328-.487.73-.706 1.208a10.91 10.91 0 00-.571 1.561 14.61 14.61 0 00-.378 1.755 12.213 12.213 0 00.099 4.181c.159.806.373 1.551.642 2.237.271.69.576 1.253.914 1.69h-1.695a9.873 9.873 0 01-1.476-2.888c-.329-1.044-.493-2.186-.493-3.425zM615.747 54v-1.332l3.535-3.466c.338-.341.619-.644.845-.91a3.36 3.36 0 00.507-.77 1.9 1.9 0 00.169-.795c0-.322-.073-.597-.219-.826a1.456 1.456 0 00-.601-.537 1.946 1.946 0 00-.87-.189c-.335 0-.629.07-.88.21a1.432 1.432 0 00-.587.58 1.868 1.868 0 00-.204.9h-1.755c0-.646.148-1.207.443-1.685a2.987 2.987 0 011.218-1.108c.52-.262 1.117-.393 1.789-.393.683 0 1.283.128 1.8.383.517.255.918.605 1.203 1.049.289.444.433.951.433 1.521 0 .381-.073.756-.219 1.124-.146.368-.403.775-.771 1.223-.364.447-.876.989-1.536 1.625l-1.755 1.785v.07h4.435V54h-6.98zm8.292-1.89v-1.466l4.321-6.826h1.223v2.088h-.746l-2.908 4.609v.08h6.03v1.516h-7.92zm4.858 1.89v-2.337l.02-.656v-7.189h1.74V54h-1.76zm6.47-4.474V54h-1.8V43.818h1.76v3.843h.09c.179-.43.456-.77.83-1.019.378-.252.859-.378 1.442-.378.53 0 .993.111 1.387.333.394.222.699.547.915.975.219.427.328.95.328 1.566V54h-1.8v-4.584c0-.513-.132-.913-.398-1.198-.261-.288-.629-.433-1.103-.433-.318 0-.603.07-.855.21a1.463 1.463 0 00-.587.59c-.139.26-.209.573-.209.94zm9.998.323c0 1.24-.166 2.381-.497 3.425a9.79 9.79 0 01-1.472 2.889h-1.695c.255-.328.491-.73.706-1.203.219-.474.408-.995.567-1.562.162-.566.288-1.153.378-1.76a11.92 11.92 0 00.139-1.79c0-.785-.08-1.58-.239-2.386a12.659 12.659 0 00-.641-2.242c-.269-.69-.572-1.253-.91-1.69h1.695a9.779 9.779 0 011.472 2.893c.331 1.041.497 2.183.497 3.426z" fill="#fff"/><path d="M169.409 116v-11.636h4.068c.811 0 1.479.14 2.006.42.526.277.919.65 1.176 1.12.258.465.386.982.386 1.551 0 .5-.089.913-.267 1.238a2.07 2.07 0 01-.693.773c-.284.189-.593.33-.926.42V110c.356.023.714.148 1.074.375.36.227.661.553.903.977.243.425.364.944.364 1.557 0 .584-.133 1.108-.398 1.574-.265.466-.683.835-1.255 1.108-.572.273-1.317.409-2.233.409h-4.205zm1.409-1.25h2.796c.92 0 1.574-.178 1.96-.534.39-.36.585-.795.585-1.307 0-.394-.1-.757-.301-1.091a2.185 2.185 0 00-.858-.807c-.371-.204-.811-.306-1.318-.306h-2.864v4.045zm0-5.273h2.614c.424 0 .807-.083 1.148-.25.344-.166.617-.401.818-.704.204-.303.307-.659.307-1.068 0-.512-.178-.945-.535-1.301-.356-.36-.92-.54-1.693-.54h-2.659v3.863zm8.976 6.523v-8.727h1.34V116h-1.34zm.681-10.182a.955.955 0 01-.676-.267.86.86 0 01-.278-.642.86.86 0 01.278-.642.955.955 0 01.676-.267c.262 0 .485.089.671.267a.851.851 0 01.284.642c0 .25-.095.464-.284.642a.935.935 0 01-.671.267zm7.071 1.455v1.136h-4.523v-1.136h4.523zm-3.205-2.091h1.341v8.318c0 .379.055.663.165.852a.853.853 0 00.432.375c.178.061.365.091.562.091.148 0 .269-.007.364-.022l.227-.046.273 1.205a2.74 2.74 0 01-.381.102 2.792 2.792 0 01-.619.057 2.7 2.7 0 01-1.114-.245 2.2 2.2 0 01-.897-.744c-.235-.333-.353-.754-.353-1.261v-8.682zm8.834 11c-.819 0-1.523-.193-2.114-.58a3.78 3.78 0 01-1.364-1.596c-.318-.678-.477-1.453-.477-2.324 0-.886.163-1.669.489-2.347.329-.681.788-1.214 1.375-1.596.591-.387 1.28-.58 2.068-.58.614 0 1.167.114 1.659.341.492.227.896.546 1.21.955.315.409.51.886.585 1.431h-1.34c-.103-.397-.33-.75-.682-1.056-.349-.311-.818-.466-1.409-.466-.523 0-.981.136-1.375.409-.391.269-.695.649-.915 1.142-.216.489-.324 1.062-.324 1.721 0 .675.106 1.262.318 1.762.216.5.519.888.909 1.165.394.276.856.414 1.387.414.348 0 .664-.06.948-.181.285-.122.525-.296.722-.523.197-.227.337-.5.421-.818h1.34a3.1 3.1 0 01-.562 1.392 3.148 3.148 0 01-1.176.977c-.485.239-1.049.358-1.693.358zm9.097 0c-.788 0-1.479-.188-2.074-.563-.591-.375-1.053-.899-1.386-1.573-.33-.675-.494-1.463-.494-2.364 0-.909.164-1.703.494-2.381.333-.678.795-1.204 1.386-1.579.595-.375 1.286-.563 2.074-.563.788 0 1.477.188 2.068.563.595.375 1.057.901 1.387 1.579.333.678.5 1.472.5 2.381 0 .901-.167 1.689-.5 2.364a3.77 3.77 0 01-1.387 1.573c-.591.375-1.28.563-2.068.563zm0-1.205c.599 0 1.091-.153 1.477-.46.387-.307.673-.71.858-1.21.186-.5.279-1.042.279-1.625s-.093-1.127-.279-1.631a2.732 2.732 0 00-.858-1.221c-.386-.311-.878-.466-1.477-.466-.598 0-1.091.155-1.477.466-.387.31-.673.717-.858 1.221a4.676 4.676 0 00-.279 1.631c0 .583.093 1.125.279 1.625.185.5.471.903.858 1.21.386.307.879.46 1.477.46zm6.162 1.023v-8.727h1.34V116h-1.34zm.681-10.182a.955.955 0 01-.676-.267.86.86 0 01-.278-.642.86.86 0 01.278-.642.955.955 0 01.676-.267c.262 0 .485.089.671.267a.851.851 0 01.284.642c0 .25-.095.464-.284.642a.935.935 0 01-.671.267zm4.616 4.932V116h-1.341v-8.727h1.296v1.363h.113c.205-.443.516-.799.932-1.068.417-.272.955-.409 1.614-.409.591 0 1.108.121 1.551.364.443.238.788.602 1.034 1.091.246.485.369 1.098.369 1.841V116h-1.34v-5.454c0-.686-.178-1.22-.535-1.603-.356-.386-.844-.579-1.465-.579-.428 0-.811.093-1.148.278a1.998 1.998 0 00-.79.813c-.193.356-.29.788-.29 1.295z" fill="#F2F2F2"/><path d="M169.264 92V77.455h5.824c1.07 0 1.963.158 2.678.475.715.318 1.252.758 1.612 1.321.36.56.54 1.203.54 1.932 0 .568-.114 1.068-.341 1.499-.228.426-.54.776-.938 1.051-.393.27-.843.462-1.349.575v.142c.554.024 1.072.18 1.555.47.488.288.883.693 1.186 1.214.303.516.455 1.131.455 1.846 0 .772-.192 1.46-.575 2.067-.379.601-.94 1.077-1.684 1.428-.743.35-1.659.525-2.748.525h-6.215zm3.075-2.514h2.508c.857 0 1.482-.163 1.875-.49.393-.332.589-.772.589-1.321 0-.403-.097-.758-.291-1.066a1.976 1.976 0 00-.831-.724c-.355-.175-.779-.263-1.271-.263h-2.579v3.864zm0-5.945h2.28c.422 0 .796-.073 1.122-.22a1.87 1.87 0 00.782-.64c.194-.274.291-.603.291-.986 0-.526-.187-.95-.561-1.272-.369-.322-.895-.483-1.577-.483h-2.337v3.601zm9.594-3.55v-2.536h11.946v2.535h-4.453V92h-3.04V79.99h-4.453zm26.083 2.556h-3.111a3.05 3.05 0 00-.348-1.072 2.72 2.72 0 00-.675-.81 2.959 2.959 0 00-.951-.512 3.642 3.642 0 00-1.158-.177c-.753 0-1.409.187-1.967.561-.559.37-.992.91-1.3 1.62-.308.705-.462 1.562-.462 2.57 0 1.037.154 1.908.462 2.614.313.706.748 1.238 1.307 1.598.559.36 1.205.54 1.939.54a3.83 3.83 0 001.143-.163c.355-.11.67-.268.945-.476a2.77 2.77 0 00.682-.775c.184-.303.312-.648.383-1.037l3.111.015a5.64 5.64 0 01-.604 1.932 5.796 5.796 0 01-1.285 1.654 6.047 6.047 0 01-1.918 1.151c-.738.28-1.574.419-2.507.419-1.297 0-2.457-.294-3.48-.88-1.018-.588-1.823-1.438-2.415-2.55-.587-1.113-.881-2.46-.881-4.042 0-1.586.299-2.935.895-4.048.597-1.113 1.407-1.96 2.429-2.543 1.023-.587 2.174-.88 3.452-.88.843 0 1.624.118 2.344.355a5.954 5.954 0 011.925 1.037 5.339 5.339 0 011.363 1.655c.355.653.583 1.401.682 2.244z" fill="#fff"/><circle cx="132" cy="96" r="20" fill="#C4C4C4"/><g clip-path="url(#clip0_1_133)"><path d="M151.402 100.837c-2.672 10.72-13.533 17.236-24.238 14.564-10.72-2.672-17.237-13.533-14.565-24.237 2.673-10.72 13.518-17.237 24.238-14.565 10.705 2.657 17.237 13.518 14.565 24.238z" fill="url(#paint0_linear_1_133)"/><path d="M141.522 93.508c.391-2.656-1.625-4.094-4.406-5.047l.906-3.61-2.187-.546-.875 3.516a57.956 57.956 0 00-1.766-.407l.875-3.53-2.187-.548-.891 3.594c-.484-.11-.953-.219-1.406-.328v-.016l-3.031-.75-.579 2.344s1.625.375 1.594.39c.891.22 1.047.813 1.016 1.282l-1.031 4.11c.062.015.14.03.234.077a1.292 1.292 0 01-.234-.062l-1.438 5.75c-.109.265-.391.672-1 .515.016.032-1.594-.39-1.594-.39l-1.093 2.515 2.859.719c.531.141 1.047.266 1.562.406l-.906 3.641 2.188.547.906-3.609c.594.156 1.187.312 1.75.453l-.891 3.593 2.188.547.906-3.64c3.75.703 6.563.422 7.734-2.969.954-2.719-.046-4.297-2.015-5.328 1.453-.328 2.531-1.281 2.812-3.219zm-5.015 7.031c-.672 2.719-5.266 1.25-6.75.875l1.203-4.828c1.484.375 6.265 1.11 5.547 3.953zm.687-7.078c-.625 2.485-4.437 1.219-5.672.906l1.094-4.375c1.234.313 5.219.891 4.578 3.47z" fill="#fff"/></g><path d="M297.636 103.455V88.909h.932v14.546h-.932zm3.137-10.182a1.783 1.783 0 00-.83-1.34c-.485-.32-1.079-.478-1.784-.478-.515 0-.966.083-1.352.25a2.158 2.158 0 00-.898.687 1.649 1.649 0 00-.318.995c0 .31.074.577.221.8.152.22.345.404.58.552.235.144.481.263.739.358.257.09.494.165.71.221l1.182.319c.303.08.64.189 1.011.33.375.14.733.33 1.074.573.345.239.629.545.852.92.224.376.335.836.335 1.381 0 .629-.164 1.197-.494 1.705-.326.507-.803.911-1.432 1.21-.625.299-1.384.449-2.278.449-.833 0-1.555-.135-2.165-.404-.606-.269-1.083-.644-1.432-1.125a3.219 3.219 0 01-.585-1.676h1.455c.038.44.185.803.443 1.091.261.284.591.496.988.637.402.136.834.204 1.296.204.538 0 1.021-.087 1.449-.261a2.492 2.492 0 001.017-.739c.25-.318.375-.69.375-1.114 0-.386-.108-.7-.324-.943a2.38 2.38 0 00-.852-.59 8.996 8.996 0 00-1.142-.398l-1.432-.41c-.909-.26-1.629-.634-2.159-1.119-.531-.485-.796-1.12-.796-1.903 0-.652.176-1.22.529-1.705a3.506 3.506 0 011.432-1.136c.602-.273 1.274-.41 2.017-.41.75 0 1.416.135 2 .404.583.265 1.045.629 1.386 1.091.345.462.526.987.545 1.574h-1.363zm7.498 8.886a4.351 4.351 0 01-1.432-.272 3.437 3.437 0 01-1.306-.881c-.394-.417-.711-.979-.949-1.688-.239-.712-.358-1.606-.358-2.681 0-1.03.096-1.944.29-2.739.193-.8.473-1.472.841-2.017.367-.55.81-.966 1.329-1.25.523-.284 1.112-.426 1.767-.426.652 0 1.231.13 1.739.392a3.32 3.32 0 011.25 1.08c.322.461.53.994.625 1.596h-1.387a2.56 2.56 0 00-.75-1.301c-.371-.345-.863-.517-1.477-.517-.901 0-1.612.392-2.131 1.176-.515.784-.774 1.884-.778 3.301h.091a3.412 3.412 0 011.733-1.358 3.389 3.389 0 011.131-.187 3.47 3.47 0 011.829.5 3.7 3.7 0 011.33 1.369c.333.58.5 1.244.5 1.994a4.11 4.11 0 01-.483 1.978 3.683 3.683 0 01-1.358 1.42c-.58.348-1.262.519-2.046.511zm0-1.25c.478 0 .906-.119 1.284-.358.383-.238.684-.558.904-.96.223-.401.335-.848.335-1.34 0-.482-.108-.92-.324-1.313a2.47 2.47 0 00-.881-.95 2.327 2.327 0 00-1.272-.351c-.36 0-.695.072-1.006.216-.311.14-.583.333-.818.58a2.81 2.81 0 00-.546.846 2.542 2.542 0 00-.198.994c0 .462.108.894.323 1.295.22.402.519.726.898.972.383.246.816.369 1.301.369zm6.485 1.091l5.204-10.295v-.091h-6v-1.25h7.455v1.318L316.233 102h-1.477zm12.257.159c-.667 0-1.267-.132-1.801-.397a3.354 3.354 0 01-1.284-1.091 2.97 2.97 0 01-.529-1.58h1.364c.053.527.291.962.716 1.307.428.341.939.511 1.534.511.477 0 .901-.111 1.273-.335a2.36 2.36 0 00.88-.92c.216-.394.324-.84.324-1.336 0-.507-.112-.96-.335-1.358a2.465 2.465 0 00-.909-.948 2.571 2.571 0 00-1.324-.353 3.64 3.64 0 00-1.097.165c-.375.11-.683.252-.926.426l-1.318-.159.705-5.727h6.045v1.25h-4.864l-.409 3.432h.068c.239-.19.538-.347.898-.472s.735-.187 1.125-.187c.712 0 1.347.17 1.904.511.56.337 1 .8 1.318 1.386.322.587.483 1.258.483 2.012 0 .742-.167 1.405-.5 1.988a3.652 3.652 0 01-1.364 1.375c-.579.334-1.239.5-1.977.5zm9.893 0c-.856 0-1.585-.233-2.187-.699-.603-.469-1.063-1.149-1.381-2.04-.318-.893-.477-1.973-.477-3.238 0-1.258.159-2.331.477-3.222.322-.893.784-1.575 1.386-2.045.606-.474 1.334-.71 2.182-.71.849 0 1.574.237 2.176.71.606.47 1.069 1.151 1.387 2.045.322.89.483 1.965.483 3.222 0 1.265-.159 2.345-.478 3.239-.318.89-.778 1.57-1.38 2.039-.603.466-1.332.699-2.188.699zm0-1.25c.849 0 1.508-.409 1.978-1.227.469-.818.704-1.985.704-3.5 0-1.008-.108-1.865-.324-2.574-.212-.708-.519-1.248-.92-1.62a2.033 2.033 0 00-1.438-.556c-.841 0-1.498.415-1.971 1.244-.474.826-.711 1.995-.711 3.506 0 1.008.106 1.864.319 2.568.212.705.517 1.24.914 1.608a2.07 2.07 0 001.449.551z" fill="#F2F2F2"/><circle opacity=".1" cx="422" cy="97" r="8" fill="#8FFFBE"/><path d="M425.388 98.729l-3.207-3.719a.245.245 0 00-.362 0l-3.207 3.719c-.119.139-.011.342.181.342h6.414c.192 0 .3-.203.181-.342zm17.248 1.226v-7.5h1.273v7.5h-1.273zm-3.113-3.114v-1.273h7.5v1.273h-7.5zM449.756 102l5.204-10.295v-.091h-6v-1.25h7.455v1.318L451.233 102h-1.477zm7.777.091a.983.983 0 01-.722-.301.983.983 0 01-.301-.722c0-.28.1-.52.301-.721a.983.983 0 01.722-.301c.28 0 .521.1.721.301a.983.983 0 01.301.721.964.964 0 01-.142.512 1.06 1.06 0 01-.369.375.972.972 0 01-.511.136zm6.9.068c-.75 0-1.418-.128-2.005-.386-.584-.258-1.048-.616-1.392-1.074a2.883 2.883 0 01-.557-1.608h1.432c.03.375.159.699.386.972.227.269.525.477.892.625.367.147.775.221 1.222.221.5 0 .943-.087 1.329-.261.387-.174.69-.417.909-.727.22-.31.33-.67.33-1.08 0-.428-.106-.805-.318-1.13-.213-.33-.523-.588-.932-.773-.409-.186-.909-.279-1.5-.279h-.932v-1.25h.932c.462 0 .867-.083 1.216-.25.352-.166.627-.401.824-.704.2-.303.301-.66.301-1.068a1.96 1.96 0 00-.262-1.029 1.785 1.785 0 00-.738-.682c-.315-.163-.686-.244-1.114-.244-.401 0-.78.074-1.136.222a2.12 2.12 0 00-.864.63 1.646 1.646 0 00-.364.989h-1.363a2.77 2.77 0 01.551-1.602 3.469 3.469 0 011.352-1.08 4.37 4.37 0 011.847-.386c.719 0 1.337.146 1.852.437a3.09 3.09 0 011.188 1.142c.276.474.414.985.414 1.534 0 .656-.172 1.214-.517 1.677-.341.462-.805.782-1.392.96v.09c.735.122 1.309.434 1.722.938.413.5.619 1.12.619 1.858 0 .633-.172 1.201-.517 1.705-.341.5-.807.894-1.398 1.182-.591.287-1.263.431-2.017.431zm12.188-2.34v-.614c0-.424.087-.813.261-1.165.178-.356.436-.64.773-.852.341-.216.754-.324 1.239-.324.492 0 .905.108 1.238.324.334.212.585.496.756.852.17.352.256.74.256 1.165v.613c0 .425-.088.815-.262 1.171-.17.352-.424.636-.761.852-.334.212-.743.318-1.227.318-.493 0-.908-.106-1.245-.318a2.105 2.105 0 01-.767-.852 2.629 2.629 0 01-.261-1.17zm1.159-.614v.613c0 .353.083.669.25.949.167.277.454.415.864.415.397 0 .678-.138.84-.415.167-.28.25-.596.25-.949v-.613c0-.352-.079-.667-.238-.943-.159-.28-.443-.42-.852-.42-.398 0-.684.14-.858.42-.171.276-.256.59-.256.943zm-6.955-6.046v-.613c0-.425.087-.813.262-1.165.178-.356.435-.64.772-.852.341-.216.754-.324 1.239-.324.493 0 .905.108 1.239.324.333.212.585.496.755.852.171.352.256.74.256 1.165v.613c0 .425-.087.815-.261 1.17a2.07 2.07 0 01-.762.853c-.333.212-.742.318-1.227.318-.492 0-.907-.106-1.244-.318a2.103 2.103 0 01-.767-.852 2.617 2.617 0 01-.262-1.17zm1.159-.613v.613c0 .353.084.669.25.95.167.276.455.414.864.414.398 0 .678-.138.841-.415.167-.28.25-.596.25-.949v-.613c0-.353-.08-.667-.239-.944-.159-.28-.443-.42-.852-.42-.398 0-.684.14-.858.42-.17.277-.256.591-.256.944zm-.727 9.454l8-11.636h1.296l-8 11.636h-1.296z" fill="#8FFFBE"/><path d="M559.637 103.455V88.909h.931v14.546h-.931zm3.136-10.182a1.783 1.783 0 00-.83-1.34c-.484-.32-1.079-.478-1.784-.478-.515 0-.966.083-1.352.25a2.158 2.158 0 00-.898.687 1.649 1.649 0 00-.318.995c0 .31.074.577.222.8.151.22.344.404.579.552.235.144.481.263.739.358.257.09.494.165.71.221l1.182.319c.303.08.64.189 1.011.33.375.14.733.33 1.074.573.345.239.629.545.852.92.224.376.336.836.336 1.381 0 .629-.165 1.197-.495 1.705-.325.507-.803.911-1.431 1.21-.625.299-1.385.449-2.279.449-.833 0-1.555-.135-2.165-.404-.606-.269-1.083-.644-1.431-1.125a3.211 3.211 0 01-.586-1.676h1.455c.038.44.185.803.443 1.091.261.284.591.496.989.637.401.136.833.204 1.295.204.538 0 1.021-.087 1.449-.261a2.492 2.492 0 001.017-.739c.25-.318.375-.69.375-1.114 0-.386-.108-.7-.324-.943a2.38 2.38 0 00-.852-.59 8.942 8.942 0 00-1.142-.398l-1.432-.41c-.909-.26-1.629-.634-2.159-1.119-.53-.485-.796-1.12-.796-1.903 0-.652.177-1.22.529-1.705a3.506 3.506 0 011.432-1.136c.602-.273 1.274-.41 2.017-.41.75 0 1.416.135 2 .404.583.265 1.045.629 1.386 1.091.345.462.527.987.546 1.574h-1.364zm7.567 8.886c-.75 0-1.419-.128-2.006-.386-.583-.258-1.047-.616-1.392-1.074a2.883 2.883 0 01-.557-1.608h1.432c.03.375.159.699.386.972.228.269.525.477.892.625.368.147.775.221 1.222.221.5 0 .943-.087 1.329-.261.387-.174.69-.417.91-.727.219-.31.329-.67.329-1.08 0-.428-.106-.805-.318-1.13-.212-.33-.523-.588-.932-.773-.409-.186-.909-.279-1.5-.279h-.932v-1.25h.932c.462 0 .868-.083 1.216-.25.352-.166.627-.401.824-.704.201-.303.301-.66.301-1.068a1.97 1.97 0 00-.261-1.029 1.794 1.794 0 00-.739-.682c-.314-.163-.686-.244-1.114-.244-.401 0-.78.074-1.136.222-.352.144-.64.354-.864.63a1.645 1.645 0 00-.363.989h-1.364c.023-.61.207-1.144.551-1.602a3.472 3.472 0 011.353-1.08 4.366 4.366 0 011.846-.386c.72 0 1.337.146 1.852.437.516.288.911.669 1.188 1.142.276.474.415.985.415 1.534 0 .656-.173 1.214-.517 1.677-.341.462-.805.782-1.392.96v.09c.734.122 1.308.434 1.721.938.413.5.619 1.12.619 1.858 0 .633-.172 1.201-.517 1.705-.34.5-.806.894-1.397 1.182-.591.287-1.264.431-2.017.431zm5.983-2.545v-1.16l5.113-8.09h.841v1.795h-.568l-3.864 6.114v.09h6.887v1.25h-8.409zM581.8 102V90.364h1.341V102H581.8zm5.061 0v-1.022l3.841-4.205c.451-.492.822-.92 1.114-1.284a4.78 4.78 0 00.647-1.034c.144-.326.216-.667.216-1.023 0-.409-.098-.763-.295-1.062-.193-.3-.459-.53-.796-.694a2.578 2.578 0 00-1.136-.244c-.447 0-.837.093-1.171.278a1.921 1.921 0 00-.767.768c-.178.33-.267.715-.267 1.159h-1.341c0-.682.158-1.28.472-1.796a3.271 3.271 0 011.284-1.204 3.871 3.871 0 011.835-.432c.682 0 1.286.144 1.813.432.526.287.939.676 1.238 1.164.3.489.449 1.033.449 1.631 0 .428-.077.847-.233 1.256-.151.405-.416.858-.795 1.358-.375.496-.896 1.102-1.563 1.818l-2.613 2.795v.091h5.409V102h-7.341zm13.483.159c-.856 0-1.585-.233-2.188-.699-.602-.469-1.062-1.149-1.38-2.04-.318-.893-.478-1.973-.478-3.238 0-1.258.16-2.331.478-3.222.322-.893.784-1.575 1.386-2.045.606-.474 1.333-.71 2.182-.71.848 0 1.574.237 2.176.71.606.47 1.068 1.151 1.386 2.045.322.89.483 1.965.483 3.222 0 1.265-.159 2.345-.477 3.239-.318.89-.778 1.57-1.381 2.039-.602.466-1.331.699-2.187.699zm0-1.25c.848 0 1.508-.409 1.977-1.227.47-.818.705-1.985.705-3.5 0-1.008-.108-1.865-.324-2.574-.212-.708-.519-1.248-.921-1.62a2.029 2.029 0 00-1.437-.556c-.841 0-1.498.415-1.972 1.244-.473.826-.71 1.995-.71 3.506 0 1.008.106 1.864.318 2.568.212.705.517 1.24.915 1.608a2.07 2.07 0 001.449.551zm6.204 1.091v-1.022l3.841-4.205c.451-.492.822-.92 1.114-1.284a4.75 4.75 0 00.648-1.034c.144-.326.216-.667.216-1.023 0-.409-.099-.763-.296-1.062a1.92 1.92 0 00-.795-.694 2.58 2.58 0 00-1.137-.244c-.447 0-.837.093-1.17.278-.33.182-.585.438-.767.768-.178.33-.267.715-.267 1.159h-1.341c0-.682.157-1.28.472-1.796a3.271 3.271 0 011.284-1.204c.545-.288 1.157-.432 1.835-.432.682 0 1.286.144 1.812.432.527.287.94.676 1.239 1.164.299.489.449 1.033.449 1.631 0 .428-.078.847-.233 1.256-.152.405-.417.858-.796 1.358a24.163 24.163 0 01-1.562 1.818l-2.614 2.795v.091h5.409V102h-7.341zm13.779-11.636V102h-1.409V91.841h-.068l-2.841 1.887v-1.432l2.909-1.932h1.409zm3.074 9.25v-1.16l5.113-8.09h.841v1.795h-.568l-3.864 6.114v.09h6.887v1.25h-8.409zm5.477 2.386V90.364h1.341V102h-1.341z" fill="#F2F2F2"/><g filter="url(#filter1_d_1_133)"><rect y="144" width="610" height="79" rx="16" fill="#4610AD"/><path d="M97.409 203v-11.636h7.023v1.25h-5.614v3.932h5.25v1.25h-5.25v3.954h5.705V203h-7.114zm13.336-8.727v1.136h-4.523v-1.136h4.523zm-3.204-2.091h1.341v8.318c0 .379.054.663.164.852a.853.853 0 00.432.375c.178.061.366.091.563.091a2.4 2.4 0 00.363-.022l.228-.046.272 1.205a2.76 2.76 0 01-.38.102c-.163.038-.37.057-.62.057-.379 0-.75-.082-1.113-.245a2.21 2.21 0 01-.898-.744c-.235-.333-.352-.754-.352-1.261v-8.682zm6.91 5.568V203h-1.341v-11.636h1.341v4.272h.113c.205-.45.512-.808.921-1.073.413-.269.962-.404 1.647-.404.595 0 1.116.12 1.563.358.447.235.793.597 1.04 1.085.25.485.375 1.103.375 1.853V203h-1.341v-5.454c0-.694-.18-1.23-.54-1.608-.356-.383-.85-.574-1.483-.574-.439 0-.833.093-1.182.278a2.044 2.044 0 00-.818.813c-.197.356-.295.788-.295 1.295zm11.931 5.432c-.841 0-1.566-.186-2.176-.557a3.744 3.744 0 01-1.404-1.568c-.325-.674-.488-1.458-.488-2.352 0-.894.163-1.682.488-2.364.33-.686.788-1.22 1.375-1.602.591-.387 1.281-.58 2.069-.58.454 0 .903.076 1.346.227.443.152.847.398 1.21.739.364.337.654.784.87 1.341.216.557.324 1.242.324 2.057v.568h-6.728v-1.159h5.364a2.86 2.86 0 00-.296-1.318 2.217 2.217 0 00-.829-.915c-.356-.223-.777-.335-1.261-.335-.535 0-.997.132-1.387.397a2.625 2.625 0 00-.892 1.023 3.01 3.01 0 00-.312 1.352v.773c0 .659.113 1.218.341 1.676.231.455.551.801.96 1.04.409.235.884.352 1.426.352.352 0 .67-.049.954-.147.288-.103.536-.254.745-.455.208-.204.369-.458.483-.761l1.295.363a2.86 2.86 0 01-.687 1.159c-.322.33-.72.588-1.193.773a4.425 4.425 0 01-1.597.273zm5.813-.182v-8.727h1.296v1.318h.091c.159-.432.447-.782.863-1.051a2.544 2.544 0 011.409-.404c.099 0 .222.002.37.006.147.004.259.01.335.017v1.364a3.396 3.396 0 00-.313-.051 3.014 3.014 0 00-.505-.04 2.38 2.38 0 00-1.137.267c-.329.174-.59.417-.784.727a1.963 1.963 0 00-.284 1.051V203h-1.341zm9.507.182c-.841 0-1.566-.186-2.176-.557a3.744 3.744 0 01-1.404-1.568c-.325-.674-.488-1.458-.488-2.352 0-.894.163-1.682.488-2.364.33-.686.788-1.22 1.375-1.602.591-.387 1.281-.58 2.069-.58.454 0 .903.076 1.346.227.443.152.847.398 1.21.739.364.337.654.784.87 1.341.216.557.324 1.242.324 2.057v.568h-6.728v-1.159h5.364a2.86 2.86 0 00-.296-1.318 2.217 2.217 0 00-.829-.915c-.356-.223-.777-.335-1.261-.335-.535 0-.997.132-1.387.397a2.625 2.625 0 00-.892 1.023 3.01 3.01 0 00-.312 1.352v.773c0 .659.113 1.218.341 1.676.231.455.551.801.96 1.04.409.235.884.352 1.426.352.352 0 .67-.049.954-.147.288-.103.536-.254.745-.455.208-.204.369-.458.483-.761l1.295.363a2.86 2.86 0 01-.687 1.159c-.322.33-.72.588-1.193.773a4.425 4.425 0 01-1.597.273zm11.313-3.75v-5.159h1.341V203h-1.341v-1.477h-.091a2.86 2.86 0 01-.954 1.131c-.432.306-.977.46-1.636.46-.546 0-1.031-.12-1.455-.358-.424-.243-.758-.606-1-1.091-.242-.489-.364-1.104-.364-1.847v-5.545h1.341v5.454c0 .637.178 1.144.534 1.523.36.379.819.568 1.375.568.334 0 .673-.085 1.017-.255.349-.171.641-.432.875-.784.239-.353.358-.802.358-1.347zm3.957 3.568v-8.727h1.296v1.363h.113c.182-.465.476-.827.881-1.085.405-.261.892-.392 1.46-.392.576 0 1.055.131 1.438.392.386.258.687.62.903 1.085h.091c.224-.45.559-.808 1.006-1.073.447-.269.983-.404 1.608-.404.78 0 1.418.245 1.914.733.497.485.745 1.241.745 2.267V203h-1.341v-5.841c0-.644-.176-1.104-.529-1.38a1.952 1.952 0 00-1.244-.415c-.614 0-1.089.185-1.426.557-.337.367-.506.833-.506 1.397V203h-1.363v-5.977c0-.496-.161-.896-.483-1.199-.322-.307-.737-.46-1.245-.46-.348 0-.674.093-.977.278a2.1 2.1 0 00-.727.773 2.281 2.281 0 00-.273 1.131V203h-1.341z" fill="#F2F2F2"/><path d="M97.264 179v-14.545h9.801v2.535h-6.726v3.466h6.222v2.536h-6.222v3.473h6.755V179h-9.83zm11.692-12.01v-2.535h11.946v2.535h-4.453V179h-3.04v-12.01h-4.453zM122.87 179v-14.545h3.075v6.001h6.243v-6.001h3.068V179h-3.068v-6.008h-6.243V179h-3.075z" fill="#fff"/><path d="M79.891 184c0 10.988-8.907 19.895-19.894 19.895-10.987 0-19.895-8.907-19.895-19.895 0-10.987 8.908-19.895 19.895-19.895S79.891 173.013 79.891 184" fill="#6374C3"/><path d="M59.933 174.769l-.123.418v12.119l.123.123 5.626-3.325-5.626-9.335z" fill="#fff"/><path d="M59.933 174.769l-5.626 9.335 5.626 3.325v-12.66zm0 14.49l-.07.084v4.318l.07.202 5.629-7.928-5.63 3.324z" fill="#fff"/><path d="M59.933 193.863v-4.604l-5.626-3.324 5.626 7.928zm0-6.433l5.626-3.325-5.626-2.557v5.882z" fill="#fff"/><path d="M54.307 184.105l5.626 3.325v-5.882l-5.626 2.557z" fill="#fff"/><path d="M225.636 190.455v-14.546h.932v14.546h-.932zm3.137-10.182a1.785 1.785 0 00-.83-1.341c-.485-.318-1.079-.477-1.784-.477-.515 0-.966.083-1.352.25a2.157 2.157 0 00-.898.687 1.649 1.649 0 00-.318.994c0 .311.074.578.221.802.152.219.345.403.58.551.235.144.481.263.739.358.257.091.494.164.71.221l1.182.318c.303.08.64.19 1.011.33.375.14.733.331 1.074.574.345.239.629.545.852.92.224.375.335.836.335 1.381 0 .629-.164 1.197-.494 1.705-.326.507-.803.911-1.432 1.21-.625.299-1.384.449-2.278.449-.833 0-1.555-.135-2.165-.404-.606-.269-1.083-.644-1.432-1.125a3.212 3.212 0 01-.585-1.676h1.455c.037.44.185.803.443 1.091.261.284.591.496.988.636.402.137.834.205 1.296.205.538 0 1.021-.087 1.449-.261a2.49 2.49 0 001.017-.739 1.75 1.75 0 00.375-1.114c0-.386-.108-.7-.324-.943a2.39 2.39 0 00-.852-.591 9.14 9.14 0 00-1.142-.398l-1.432-.409c-.909-.261-1.629-.634-2.159-1.119-.531-.485-.796-1.119-.796-1.903 0-.652.176-1.22.529-1.705a3.506 3.506 0 011.431-1.136c.603-.273 1.275-.409 2.017-.409.75 0 1.417.134 2 .403.584.265 1.046.629 1.387 1.091.345.462.526.987.545 1.574h-1.363zm7.726-2.909V189h-1.41v-10.159h-.068l-2.841 1.886v-1.431l2.909-1.932h1.41zm6.982 11.795c-.666 0-1.267-.132-1.801-.398a3.343 3.343 0 01-1.284-1.09 2.973 2.973 0 01-.528-1.58h1.363c.054.527.292.962.716 1.307.428.341.94.511 1.534.511.478 0 .902-.112 1.273-.335.375-.223.669-.53.881-.92.216-.394.324-.839.324-1.336 0-.507-.112-.96-.335-1.358a2.47 2.47 0 00-.91-.949 2.567 2.567 0 00-1.323-.352 3.622 3.622 0 00-1.097.165c-.375.11-.684.252-.926.426l-1.318-.159.704-5.727h6.046v1.25h-4.864l-.409 3.432h.068c.239-.19.538-.347.898-.472s.735-.188 1.125-.188c.712 0 1.346.171 1.903.512.561.337 1 .799 1.318 1.386.322.587.483 1.258.483 2.012 0 .742-.166 1.405-.5 1.988a3.65 3.65 0 01-1.363 1.375c-.58.334-1.239.5-1.978.5zm9.962 0a4.327 4.327 0 01-1.432-.273 3.426 3.426 0 01-1.307-.88c-.393-.417-.71-.979-.948-1.688-.239-.712-.358-1.606-.358-2.682 0-1.03.096-1.943.289-2.738.194-.799.474-1.472.841-2.017.368-.549.811-.966 1.33-1.25.523-.284 1.112-.426 1.767-.426.651 0 1.231.13 1.739.392.511.257.928.617 1.25 1.079.322.462.53.995.625 1.597h-1.387a2.569 2.569 0 00-.75-1.301c-.371-.345-.863-.517-1.477-.517-.902 0-1.612.392-2.131 1.176-.515.784-.774 1.884-.778 3.301h.091a3.423 3.423 0 011.733-1.358 3.388 3.388 0 011.13-.188 3.48 3.48 0 011.83.5c.553.33.996.786 1.329 1.37.334.579.5 1.244.5 1.994 0 .72-.161 1.379-.482 1.977a3.678 3.678 0 01-1.358 1.421c-.58.348-1.262.519-2.046.511zm0-1.25c.477 0 .905-.119 1.284-.358.383-.238.684-.558.904-.96.223-.401.335-.848.335-1.341 0-.481-.108-.918-.324-1.312a2.47 2.47 0 00-.881-.949 2.326 2.326 0 00-1.272-.353c-.36 0-.696.072-1.006.216a2.61 2.61 0 00-.818.58 2.8 2.8 0 00-.546.847 2.69 2.69 0 001.023 3.261c.383.246.816.369 1.301.369zm6.574 1.182c-.28 0-.521-.1-.722-.301a.987.987 0 01-.301-.722c0-.28.101-.521.301-.721a.985.985 0 01.722-.301c.28 0 .521.1.722.301.2.2.301.441.301.721a.973.973 0 01-.142.512c-.091.155-.214.28-.37.375a.972.972 0 01-.511.136zm6.774.068c-.78 0-1.47-.138-2.068-.415-.595-.28-1.059-.664-1.392-1.153a2.897 2.897 0 01-.494-1.682 3.086 3.086 0 011.096-2.415 2.464 2.464 0 011.154-.539v-.069c-.557-.143-1-.456-1.33-.937a2.843 2.843 0 01-.489-1.653 2.818 2.818 0 01.449-1.586c.303-.466.72-.833 1.25-1.102.534-.269 1.142-.403 1.824-.403.674 0 1.277.134 1.807.403s.947.636 1.25 1.102c.307.466.462.995.466 1.586a2.878 2.878 0 01-.506 1.653 2.238 2.238 0 01-1.312.937v.069c.42.075.799.255 1.136.539.337.281.606.631.807 1.052.201.416.303.871.307 1.363a2.941 2.941 0 01-.512 1.682c-.333.489-.797.873-1.392 1.153-.591.277-1.274.415-2.051.415zm0-1.25c.527 0 .981-.085 1.364-.255.382-.171.678-.411.886-.722.208-.311.315-.674.318-1.091a2.084 2.084 0 00-.341-1.165 2.308 2.308 0 00-.914-.795 2.877 2.877 0 00-1.313-.29c-.496 0-.939.097-1.329.29a2.304 2.304 0 00-.915.795 2.05 2.05 0 00-.324 1.165c-.004.417.097.78.301 1.091.208.311.506.551.892.722.386.17.845.255 1.375.255zm0-5.523c.417 0 .786-.083 1.108-.25.326-.166.582-.399.767-.698.186-.3.28-.65.284-1.052a1.942 1.942 0 00-.278-1.028 1.81 1.81 0 00-.756-.682c-.322-.163-.697-.244-1.125-.244-.435 0-.816.081-1.142.244a1.764 1.764 0 00-.756.682 1.898 1.898 0 00-.261 1.028c-.004.402.085.752.267 1.052.186.299.441.532.767.698.326.167.701.25 1.125.25zm10.064 6.773c-.75 0-1.419-.129-2.006-.386-.583-.258-1.047-.616-1.392-1.074a2.882 2.882 0 01-.556-1.608h1.431c.031.375.159.699.387.972.227.269.524.477.892.625.367.147.774.221 1.221.221.5 0 .944-.087 1.33-.261a2.19 2.19 0 00.909-.727c.22-.311.33-.671.33-1.08 0-.428-.107-.805-.319-1.131-.212-.329-.522-.587-.931-.772-.41-.186-.91-.279-1.5-.279h-.932v-1.25h.932c.462 0 .867-.083 1.215-.25.353-.166.627-.401.824-.704.201-.303.301-.659.301-1.069 0-.393-.087-.736-.261-1.028a1.781 1.781 0 00-.739-.682c-.314-.163-.685-.244-1.113-.244-.402 0-.781.074-1.137.222-.352.143-.64.354-.863.63a1.64 1.64 0 00-.364.989h-1.363c.022-.61.206-1.144.551-1.602a3.46 3.46 0 011.352-1.08 4.364 4.364 0 011.847-.386c.719 0 1.337.146 1.852.437a3.08 3.08 0 011.187 1.142c.277.474.415.985.415 1.534 0 .656-.172 1.214-.517 1.676-.341.463-.805.783-1.392.961v.091c.735.121 1.309.433 1.722.937.412.5.619 1.119.619 1.858 0 .633-.172 1.201-.517 1.705-.341.5-.807.894-1.398 1.181-.591.288-1.263.432-2.017.432z" fill="#F2F2F2"/><circle opacity=".1" cx="350" cy="184" r="8" fill="#FF7676"/><path d="M353.207 181.93h-6.414c-.193 0-.3.203-.181.342l3.207 3.718a.244.244 0 00.362 0l3.207-3.718c.119-.139.011-.342-.181-.342zm19.02.627v1.25h-5.091v-1.25h5.091zm6.132 6.602c-.856 0-1.585-.233-2.187-.699-.602-.469-1.063-1.149-1.381-2.039-.318-.894-.477-1.974-.477-3.239 0-1.258.159-2.331.477-3.222.322-.894.784-1.575 1.386-2.045.607-.474 1.334-.71 2.182-.71.849 0 1.574.236 2.176.71.607.47 1.069 1.151 1.387 2.045.322.891.483 1.964.483 3.222 0 1.265-.159 2.345-.478 3.239-.318.89-.778 1.57-1.38 2.039-.602.466-1.332.699-2.188.699zm0-1.25c.849 0 1.508-.409 1.978-1.227.469-.818.704-1.985.704-3.5 0-1.008-.108-1.866-.324-2.574-.212-.708-.519-1.248-.92-1.619a2.034 2.034 0 00-1.438-.557c-.841 0-1.498.415-1.971 1.244-.474.826-.711 1.995-.711 3.506 0 1.008.107 1.864.319 2.568.212.705.517 1.241.914 1.608a2.07 2.07 0 001.449.551zm6.799 1.182a.983.983 0 01-.722-.301.983.983 0 01-.301-.722c0-.28.1-.521.301-.721a.983.983 0 01.722-.301c.28 0 .52.1.721.301.201.2.301.441.301.721a.964.964 0 01-.142.512c-.091.155-.214.28-.369.375a.974.974 0 01-.511.136zm7.001-11.886a4.15 4.15 0 011.432.272c.477.178.913.474 1.307.887.394.409.71.968.949 1.676.238.708.357 1.596.357 2.665 0 1.034-.098 1.952-.295 2.755-.193.8-.473 1.474-.841 2.023-.364.549-.807.966-1.329 1.25-.519.284-1.106.426-1.762.426-.651 0-1.233-.129-1.744-.386a3.429 3.429 0 01-1.25-1.085 3.768 3.768 0 01-.619-1.62h1.386c.125.534.373.976.744 1.324.375.345.87.517 1.483.517.898 0 1.606-.392 2.125-1.176.523-.784.784-1.892.784-3.324h-.091a3.58 3.58 0 01-.755.824 3.337 3.337 0 01-2.108.722 3.53 3.53 0 01-1.835-.495 3.735 3.735 0 01-1.33-1.369c-.33-.583-.494-1.25-.494-2 0-.712.159-1.364.477-1.955a3.696 3.696 0 011.352-1.42c.584-.352 1.269-.523 2.057-.511zm0 1.25c-.477 0-.907.119-1.29.358-.379.234-.68.553-.903.954a2.69 2.69 0 00-.33 1.324c0 .485.106.926.318 1.324.216.394.51.708.881.943.375.231.801.347 1.279.347.359 0 .695-.07 1.005-.211a2.59 2.59 0 00.813-.585c.235-.25.418-.532.551-.846.132-.319.199-.65.199-.995a2.6 2.6 0 00-.33-1.278 2.61 2.61 0 00-.898-.966 2.322 2.322 0 00-1.295-.369zm12.212 8.363v-.613c0-.425.087-.813.261-1.165.178-.356.436-.64.773-.852.341-.216.754-.324 1.238-.324.493 0 .906.108 1.239.324.333.212.585.496.756.852.17.352.255.74.255 1.165v.613c0 .425-.087.815-.261 1.171-.17.352-.424.636-.761.852-.334.212-.743.318-1.228.318-.492 0-.907-.106-1.244-.318a2.105 2.105 0 01-.767-.852 2.63 2.63 0 01-.261-1.171zm1.159-.613v.613c0 .353.083.669.25.949.166.277.454.415.863.415.398 0 .678-.138.841-.415.167-.28.25-.596.25-.949v-.613a1.86 1.86 0 00-.238-.944c-.159-.28-.444-.42-.853-.42-.397 0-.683.14-.858.42-.17.277-.255.591-.255.944zm-6.955-6.046v-.613c0-.425.087-.813.262-1.165.178-.356.435-.64.772-.852.341-.216.754-.324 1.239-.324.492 0 .905.108 1.239.324.333.212.585.496.755.852.171.352.256.74.256 1.165v.613c0 .424-.087.815-.261 1.171a2.071 2.071 0 01-.762.852c-.333.212-.742.318-1.227.318-.492 0-.907-.106-1.244-.318a2.105 2.105 0 01-.767-.852 2.62 2.62 0 01-.262-1.171zm1.159-.613v.613c0 .352.084.669.25.949.167.277.455.415.864.415.398 0 .678-.138.841-.415.167-.28.25-.597.25-.949v-.613c0-.353-.08-.667-.239-.944-.159-.28-.443-.42-.852-.42-.398 0-.684.14-.858.42-.17.277-.256.591-.256.944zm-.727 9.454l8-11.636h1.295l-8 11.636h-1.295z" fill="#FF7676"/><path d="M487.636 190.455v-14.546h.932v14.546h-.932zm3.137-10.182a1.785 1.785 0 00-.83-1.341c-.485-.318-1.079-.477-1.784-.477-.515 0-.966.083-1.352.25a2.157 2.157 0 00-.898.687 1.649 1.649 0 00-.318.994c0 .311.074.578.221.802.152.219.345.403.58.551.235.144.481.263.739.358.257.091.494.164.71.221l1.182.318c.303.08.64.19 1.011.33.375.14.733.331 1.074.574.345.239.629.545.852.92.224.375.335.836.335 1.381 0 .629-.164 1.197-.494 1.705-.326.507-.803.911-1.432 1.21-.625.299-1.384.449-2.278.449-.833 0-1.555-.135-2.165-.404-.606-.269-1.083-.644-1.432-1.125a3.212 3.212 0 01-.585-1.676h1.455c.037.44.185.803.443 1.091.261.284.591.496.988.636.402.137.834.205 1.296.205.538 0 1.021-.087 1.449-.261a2.49 2.49 0 001.017-.739 1.75 1.75 0 00.375-1.114c0-.386-.108-.7-.324-.943a2.39 2.39 0 00-.852-.591 9.14 9.14 0 00-1.142-.398l-1.432-.409c-.909-.261-1.629-.634-2.159-1.119-.531-.485-.796-1.119-.796-1.903 0-.652.176-1.22.529-1.705a3.506 3.506 0 011.431-1.136c.603-.273 1.275-.409 2.017-.409.75 0 1.417.134 2 .403.584.265 1.046.629 1.387 1.091.345.462.526.987.545 1.574h-1.363zm7.726-2.909V189h-1.41v-10.159h-.068l-2.841 1.886v-1.431l2.909-1.932h1.41zm7.073 11.795c-.78 0-1.469-.138-2.068-.415-.594-.28-1.059-.664-1.392-1.153a2.897 2.897 0 01-.494-1.682 3.086 3.086 0 01.29-1.363c.197-.421.466-.771.806-1.052.345-.284.73-.464 1.154-.539v-.069c-.557-.143-1-.456-1.33-.937a2.842 2.842 0 01-.488-1.653 2.802 2.802 0 01.449-1.586 3.155 3.155 0 011.25-1.102c.534-.269 1.142-.403 1.823-.403.675 0 1.277.134 1.807.403.531.269.947.636 1.25 1.102.307.466.462.995.466 1.586a2.878 2.878 0 01-.506 1.653 2.238 2.238 0 01-1.312.937v.069c.42.075.799.255 1.136.539.337.281.606.631.807 1.052.201.416.303.871.307 1.363a2.94 2.94 0 01-.511 1.682c-.334.489-.798.873-1.392 1.153-.591.277-1.275.415-2.052.415zm0-1.25c.527 0 .981-.085 1.364-.255.383-.171.678-.411.886-.722.209-.311.315-.674.319-1.091a2.1 2.1 0 00-.341-1.165 2.318 2.318 0 00-.915-.795 2.877 2.877 0 00-1.313-.29c-.496 0-.939.097-1.329.29a2.311 2.311 0 00-.915.795 2.05 2.05 0 00-.324 1.165c-.004.417.097.78.301 1.091.209.311.506.551.892.722.387.17.845.255 1.375.255zm0-5.523c.417 0 .786-.083 1.108-.25.326-.166.582-.399.767-.698.186-.3.281-.65.284-1.052a1.933 1.933 0 00-.278-1.028 1.81 1.81 0 00-.756-.682c-.322-.163-.697-.244-1.125-.244-.435 0-.816.081-1.142.244a1.767 1.767 0 00-.755.682 1.908 1.908 0 00-.262 1.028c-.003.402.086.752.267 1.052.186.299.442.532.767.698.326.167.701.25 1.125.25zm10.223-5.022V189h-1.409v-10.159h-.068l-2.841 1.886v-1.431l2.909-1.932h1.409zM519.142 189v-1.023l3.841-4.204c.451-.493.822-.921 1.114-1.284a4.78 4.78 0 00.647-1.034c.144-.326.216-.667.216-1.023 0-.409-.098-.763-.295-1.063a1.92 1.92 0 00-.796-.693 2.576 2.576 0 00-1.136-.244c-.447 0-.837.093-1.171.278a1.926 1.926 0 00-.767.767c-.178.33-.267.716-.267 1.159h-1.341c0-.681.158-1.28.472-1.795a3.275 3.275 0 011.284-1.205 3.881 3.881 0 011.835-.431c.682 0 1.286.144 1.813.431.526.288.939.677 1.238 1.165.3.489.449 1.032.449 1.631 0 .428-.077.847-.233 1.256-.151.405-.416.858-.795 1.358-.375.496-.896 1.102-1.563 1.818l-2.613 2.795v.091h5.409V189h-7.341zm13.619.159c-.75 0-1.418-.129-2.005-.386-.584-.258-1.048-.616-1.392-1.074a2.883 2.883 0 01-.557-1.608h1.432c.03.375.159.699.386.972.227.269.525.477.892.625.367.147.775.221 1.222.221.5 0 .943-.087 1.329-.261.386-.174.69-.417.909-.727.22-.311.33-.671.33-1.08 0-.428-.106-.805-.318-1.131-.213-.329-.523-.587-.932-.772-.409-.186-.909-.279-1.5-.279h-.932v-1.25h.932c.462 0 .867-.083 1.216-.25.352-.166.627-.401.824-.704.2-.303.301-.659.301-1.069 0-.393-.087-.736-.262-1.028a1.785 1.785 0 00-.738-.682c-.315-.163-.686-.244-1.114-.244-.401 0-.78.074-1.136.222-.353.143-.64.354-.864.63a1.646 1.646 0 00-.364.989h-1.363c.022-.61.206-1.144.551-1.602a3.466 3.466 0 011.352-1.08 4.364 4.364 0 011.847-.386c.719 0 1.337.146 1.852.437a3.09 3.09 0 011.188 1.142c.276.474.414.985.414 1.534 0 .656-.172 1.214-.517 1.676-.341.463-.805.783-1.392.961v.091c.735.121 1.309.433 1.722.937.413.5.619 1.119.619 1.858 0 .633-.172 1.201-.517 1.705-.341.5-.807.894-1.398 1.181-.591.288-1.263.432-2.017.432zm9.892 0c-.666 0-1.267-.132-1.801-.398a3.343 3.343 0 01-1.284-1.09 2.973 2.973 0 01-.528-1.58h1.363c.053.527.292.962.716 1.307.428.341.94.511 1.534.511.478 0 .902-.112 1.273-.335.375-.223.669-.53.881-.92.216-.394.324-.839.324-1.336 0-.507-.112-.96-.336-1.358a2.461 2.461 0 00-.909-.949 2.568 2.568 0 00-1.324-.352 3.616 3.616 0 00-1.096.165c-.375.11-.684.252-.926.426l-1.318-.159.704-5.727h6.046v1.25h-4.864l-.409 3.432h.068c.239-.19.538-.347.898-.472s.735-.188 1.125-.188c.712 0 1.346.171 1.903.512.561.337 1 .799 1.318 1.386.322.587.483 1.258.483 2.012 0 .742-.166 1.405-.5 1.988a3.65 3.65 0 01-1.363 1.375c-.58.334-1.239.5-1.978.5zm9.894 0c-.856 0-1.585-.233-2.188-.699-.602-.469-1.062-1.149-1.38-2.039-.319-.894-.478-1.974-.478-3.239 0-1.258.159-2.331.478-3.222.322-.894.784-1.575 1.386-2.045.606-.474 1.333-.71 2.182-.71.848 0 1.574.236 2.176.71.606.47 1.068 1.151 1.386 2.045.322.891.483 1.964.483 3.222 0 1.265-.159 2.345-.477 3.239-.318.89-.778 1.57-1.381 2.039-.602.466-1.331.699-2.187.699zm0-1.25c.848 0 1.507-.409 1.977-1.227.47-.818.705-1.985.705-3.5 0-1.008-.108-1.866-.324-2.574-.212-.708-.519-1.248-.921-1.619a2.031 2.031 0 00-1.437-.557c-.841 0-1.498.415-1.972 1.244-.473.826-.71 1.995-.71 3.506 0 1.008.106 1.864.318 2.568.212.705.517 1.241.915 1.608.401.368.884.551 1.449.551z" fill="#F2F2F2"/></g><path d="M297.636 277.455V262.91h.932v14.545h-.932zm3.137-10.182a1.783 1.783 0 00-.83-1.341c-.485-.318-1.079-.477-1.784-.477-.515 0-.966.083-1.352.25a2.16 2.16 0 00-.898.688 1.647 1.647 0 00-.318.994c0 .31.074.578.221.801.152.22.345.403.58.551.235.144.481.263.739.358.257.091.494.165.71.222l1.182.318c.303.079.64.189 1.011.329.375.141.733.332 1.074.574.345.239.629.546.852.921.224.375.335.835.335 1.38 0 .629-.164 1.197-.494 1.705-.326.508-.803.911-1.432 1.21-.625.299-1.384.449-2.278.449-.833 0-1.555-.134-2.165-.403-.606-.269-1.083-.644-1.432-1.125a3.221 3.221 0 01-.585-1.677h1.455c.038.44.185.804.443 1.091a2.4 2.4 0 00.988.637c.402.136.834.204 1.296.204.538 0 1.021-.087 1.449-.261.428-.178.767-.424 1.017-.739.25-.318.375-.689.375-1.113 0-.387-.108-.701-.324-.944a2.376 2.376 0 00-.852-.59 8.828 8.828 0 00-1.142-.398l-1.432-.409c-.909-.262-1.629-.635-2.159-1.12-.531-.484-.796-1.119-.796-1.903 0-.651.176-1.22.529-1.705a3.511 3.511 0 011.432-1.136c.602-.273 1.274-.409 2.017-.409.75 0 1.416.135 2 .403.583.266 1.045.629 1.386 1.091.345.462.526.987.545 1.574h-1.363zm7.362 8.887c-.78 0-1.47-.139-2.068-.415-.595-.28-1.059-.665-1.392-1.154a2.897 2.897 0 01-.495-1.681 3.104 3.104 0 01.29-1.364c.197-.421.466-.771.807-1.051a2.477 2.477 0 011.153-.54v-.068c-.556-.144-1-.457-1.329-.938a2.833 2.833 0 01-.489-1.653 2.807 2.807 0 01.449-1.585c.303-.466.72-.834 1.25-1.103.534-.268 1.142-.403 1.824-.403.674 0 1.276.135 1.807.403.53.269.947.637 1.25 1.103.307.466.462.994.466 1.585a2.884 2.884 0 01-.506 1.653c-.33.481-.767.794-1.313.938v.068a2.4 2.4 0 011.137.54c.337.28.606.63.807 1.051.2.417.303.871.306 1.364a2.932 2.932 0 01-.511 1.681c-.333.489-.797.874-1.392 1.154-.591.276-1.275.415-2.051.415zm0-1.25c.526 0 .981-.086 1.364-.256.382-.171.678-.411.886-.722.208-.31.314-.674.318-1.091a2.089 2.089 0 00-.341-1.164 2.307 2.307 0 00-.915-.796 2.872 2.872 0 00-1.312-.29c-.496 0-.939.097-1.33.29a2.31 2.31 0 00-.914.796c-.22.337-.328.725-.324 1.164-.004.417.096.781.301 1.091.208.311.506.551.892.722.386.17.845.256 1.375.256zm0-5.523c.417 0 .786-.083 1.108-.25.326-.167.581-.4.767-.699.186-.299.28-.65.284-1.051a1.952 1.952 0 00-.278-1.029 1.808 1.808 0 00-.756-.681 2.46 2.46 0 00-1.125-.245c-.436 0-.816.082-1.142.245a1.762 1.762 0 00-.756.681 1.9 1.9 0 00-.261 1.029c-.004.401.085.752.267 1.051.186.299.441.532.767.699.326.167.701.25 1.125.25zm9.768 6.773c-.666 0-1.267-.133-1.801-.398a3.346 3.346 0 01-1.284-1.091 2.97 2.97 0 01-.528-1.58h1.363c.053.527.292.963.716 1.307.428.341.94.512 1.534.512.478 0 .902-.112 1.273-.336.375-.223.669-.53.881-.92a2.73 2.73 0 00.324-1.335c0-.508-.112-.961-.336-1.358a2.447 2.447 0 00-.909-.949 2.559 2.559 0 00-1.324-.352 3.645 3.645 0 00-1.096.164c-.375.11-.684.252-.926.426l-1.318-.159.704-5.727h6.046v1.25h-4.864l-.409 3.432h.068c.239-.189.538-.347.898-.472s.735-.187 1.125-.187c.712 0 1.346.17 1.903.511.561.337 1 .799 1.318 1.387.322.587.483 1.257.483 2.011 0 .742-.166 1.405-.5 1.989a3.664 3.664 0 01-1.363 1.375c-.58.333-1.239.5-1.978.5zm10.03 0c-.75 0-1.418-.129-2.005-.387-.584-.257-1.048-.615-1.392-1.074a2.883 2.883 0 01-.557-1.608h1.432c.03.375.159.699.386.972.227.269.524.477.892.625.367.148.775.222 1.222.222.5 0 .943-.088 1.329-.262.386-.174.689-.416.909-.727.22-.311.33-.671.33-1.08 0-.428-.106-.805-.318-1.13-.213-.33-.523-.587-.932-.773-.409-.186-.909-.278-1.5-.278h-.932v-1.25h.932c.462 0 .867-.084 1.216-.25.352-.167.626-.402.823-.705.201-.303.302-.659.302-1.068 0-.394-.088-.737-.262-1.029a1.789 1.789 0 00-.738-.681c-.315-.163-.686-.245-1.114-.245-.402 0-.78.074-1.136.222a2.107 2.107 0 00-.864.631 1.637 1.637 0 00-.364.988h-1.363c.022-.61.206-1.144.551-1.602a3.475 3.475 0 011.352-1.08 4.38 4.38 0 011.847-.386c.719 0 1.337.146 1.852.438.515.287.911.668 1.187 1.142.277.473.415.984.415 1.534 0 .655-.172 1.214-.517 1.676-.341.462-.805.782-1.392.96v.091c.735.121 1.309.434 1.722.937.413.5.619 1.12.619 1.858 0 .633-.172 1.201-.517 1.705-.341.5-.807.894-1.398 1.182-.591.288-1.263.432-2.017.432zm9.892 0c-.666 0-1.267-.133-1.801-.398a3.346 3.346 0 01-1.284-1.091 2.97 2.97 0 01-.528-1.58h1.363c.053.527.292.963.716 1.307.428.341.94.512 1.534.512.478 0 .902-.112 1.273-.336.375-.223.669-.53.881-.92a2.73 2.73 0 00.324-1.335c0-.508-.112-.961-.336-1.358a2.447 2.447 0 00-.909-.949 2.559 2.559 0 00-1.324-.352 3.645 3.645 0 00-1.096.164c-.375.11-.684.252-.926.426l-1.319-.159.705-5.727h6.045v1.25h-4.863l-.409 3.432h.068c.239-.189.538-.347.898-.472a3.396 3.396 0 011.125-.187c.712 0 1.346.17 1.903.511.561.337 1 .799 1.318 1.387.322.587.483 1.257.483 2.011 0 .742-.166 1.405-.5 1.989a3.664 3.664 0 01-1.363 1.375c-.58.333-1.239.5-1.978.5z" fill="#F2F2F2"/><circle opacity=".1" cx="422" cy="271" r="8" fill="#8FFFBE"/><path d="M425.388 272.729l-3.207-3.719a.246.246 0 00-.362 0l-3.207 3.719c-.119.139-.011.342.181.342h6.414c.192 0 .3-.203.181-.342zm17.248 1.226v-7.5h1.273v7.5h-1.273zm-3.113-3.114v-1.272h7.5v1.272h-7.5zm13.956 5.319c-.781 0-1.47-.139-2.068-.415-.595-.28-1.059-.665-1.392-1.154a2.89 2.89 0 01-.495-1.681 3.09 3.09 0 011.097-2.415 2.477 2.477 0 011.153-.54v-.068c-.557-.144-1-.457-1.329-.938a2.833 2.833 0 01-.489-1.653 2.807 2.807 0 01.449-1.585c.303-.466.72-.834 1.25-1.103.534-.268 1.142-.403 1.824-.403.674 0 1.276.135 1.807.403.53.269.947.637 1.25 1.103.306.466.462.994.466 1.585a2.884 2.884 0 01-.506 1.653c-.33.481-.767.794-1.313.938v.068a2.4 2.4 0 011.137.54c.337.28.606.63.807 1.051.2.417.303.871.306 1.364a2.932 2.932 0 01-.511 1.681c-.333.489-.797.874-1.392 1.154-.591.276-1.275.415-2.051.415zm0-1.25c.526 0 .981-.086 1.363-.256.383-.171.678-.411.887-.722.208-.31.314-.674.318-1.091a2.089 2.089 0 00-.341-1.164 2.307 2.307 0 00-.915-.796 2.872 2.872 0 00-1.312-.29c-.496 0-.94.097-1.33.29a2.32 2.32 0 00-.915.796 2.053 2.053 0 00-.323 1.164c-.004.417.096.781.301 1.091.208.311.505.551.892.722.386.17.844.256 1.375.256zm0-5.523c.416 0 .786-.083 1.108-.25.325-.167.581-.4.767-.699.185-.299.28-.65.284-1.051a1.944 1.944 0 00-.279-1.029 1.8 1.8 0 00-.755-.681 2.46 2.46 0 00-1.125-.245c-.436 0-.817.082-1.142.245a1.762 1.762 0 00-.756.681 1.9 1.9 0 00-.261 1.029c-.004.401.085.752.267 1.051a1.9 1.9 0 00.767.699c.326.167.701.25 1.125.25zm6.773 6.704a.983.983 0 01-.722-.301.981.981 0 01-.301-.721c0-.281.1-.521.301-.722a.983.983 0 01.722-.301c.28 0 .52.1.721.301a.983.983 0 01.301.722.96.96 0 01-.142.511c-.091.155-.214.28-.369.375a.974.974 0 01-.511.136zm3.406-.091v-1.022l3.841-4.205c.45-.492.822-.92 1.113-1.284.292-.367.508-.712.648-1.034.144-.326.216-.667.216-1.023 0-.409-.099-.763-.296-1.062a1.917 1.917 0 00-.795-.693 2.577 2.577 0 00-1.136-.245c-.447 0-.837.093-1.171.279a1.92 1.92 0 00-.767.767c-.178.329-.267.716-.267 1.159h-1.341c0-.682.157-1.28.472-1.796a3.272 3.272 0 011.284-1.204c.545-.288 1.157-.432 1.835-.432.682 0 1.286.144 1.813.432.526.288.939.676 1.238 1.165.3.488.449 1.032.449 1.63 0 .428-.078.847-.233 1.256-.151.405-.416.858-.795 1.358-.375.496-.896 1.102-1.563 1.818l-2.613 2.796v.09h5.409V276h-7.341zm15.619-2.181v-.614c0-.424.087-.812.261-1.165.178-.356.436-.64.773-.852.341-.216.754-.324 1.239-.324.492 0 .905.108 1.238.324.334.212.586.496.756.852.171.353.256.741.256 1.165v.614c0 .424-.087.814-.262 1.17-.17.352-.424.636-.761.852-.333.213-.742.319-1.227.319-.493 0-.907-.106-1.245-.319a2.112 2.112 0 01-.767-.852 2.628 2.628 0 01-.261-1.17zm1.159-.614v.614c0 .352.084.668.25.949.167.276.455.414.864.414.398 0 .678-.138.841-.414a1.83 1.83 0 00.25-.949v-.614c0-.352-.08-.667-.239-.943-.159-.28-.443-.421-.852-.421-.398 0-.684.141-.858.421a1.755 1.755 0 00-.256.943zm-6.954-6.045v-.614c0-.424.087-.813.261-1.165.178-.356.436-.64.773-.852.341-.216.754-.324 1.238-.324.493 0 .906.108 1.239.324.333.212.585.496.756.852.17.352.255.741.255 1.165v.614c0 .424-.087.814-.261 1.17-.17.352-.424.636-.761.852-.334.212-.743.318-1.228.318-.492 0-.907-.106-1.244-.318a2.105 2.105 0 01-.767-.852 2.628 2.628 0 01-.261-1.17zm1.159-.614v.614c0 .352.083.668.25.948.166.277.454.415.863.415.398 0 .678-.138.841-.415.167-.28.25-.596.25-.948v-.614c0-.352-.079-.667-.238-.943-.159-.281-.444-.421-.853-.421-.397 0-.683.14-.858.421-.17.276-.255.591-.255.943zm-.728 9.454l8-11.636h1.296l-8 11.636h-1.296z" fill="#8FFFBE"/><path d="M559.637 277.455V262.91h.931v14.545h-.931zm3.136-10.182a1.783 1.783 0 00-.83-1.341c-.484-.318-1.079-.477-1.784-.477-.515 0-.966.083-1.352.25a2.16 2.16 0 00-.898.688 1.647 1.647 0 00-.318.994c0 .31.074.578.222.801.151.22.344.403.579.551.235.144.481.263.739.358.257.091.494.165.71.222l1.182.318c.303.079.64.189 1.011.329.375.141.733.332 1.074.574.345.239.629.546.852.921.224.375.336.835.336 1.38 0 .629-.165 1.197-.495 1.705-.325.508-.803.911-1.431 1.21-.625.299-1.385.449-2.279.449-.833 0-1.555-.134-2.165-.403-.606-.269-1.083-.644-1.431-1.125a3.213 3.213 0 01-.586-1.677h1.455c.038.44.185.804.443 1.091.261.284.591.497.989.637.401.136.833.204 1.295.204.538 0 1.021-.087 1.449-.261.428-.178.767-.424 1.017-.739.25-.318.375-.689.375-1.113 0-.387-.108-.701-.324-.944a2.376 2.376 0 00-.852-.59 8.775 8.775 0 00-1.142-.398l-1.432-.409c-.909-.262-1.629-.635-2.159-1.12-.53-.484-.796-1.119-.796-1.903 0-.651.177-1.22.529-1.705a3.511 3.511 0 011.432-1.136c.602-.273 1.274-.409 2.017-.409.75 0 1.416.135 2 .403.583.266 1.045.629 1.386 1.091.345.462.527.987.546 1.574h-1.364zm7.271 8.887c-.666 0-1.267-.133-1.801-.398a3.346 3.346 0 01-1.284-1.091 2.97 2.97 0 01-.528-1.58h1.363c.053.527.292.963.716 1.307.428.341.94.512 1.534.512.477 0 .902-.112 1.273-.336.375-.223.669-.53.881-.92a2.73 2.73 0 00.323-1.335c0-.508-.111-.961-.335-1.358a2.447 2.447 0 00-.909-.949 2.559 2.559 0 00-1.324-.352 3.645 3.645 0 00-1.096.164c-.375.11-.684.252-.926.426l-1.319-.159.705-5.727h6.045v1.25h-4.863l-.409 3.432h.068c.238-.189.538-.347.898-.472a3.396 3.396 0 011.125-.187c.712 0 1.346.17 1.903.511.561.337 1 .799 1.318 1.387.322.587.483 1.257.483 2.011 0 .742-.167 1.405-.5 1.989a3.66 3.66 0 01-1.364 1.375c-.579.333-1.238.5-1.977.5zm9.826 0c-.781 0-1.47-.139-2.069-.415-.594-.28-1.058-.665-1.392-1.154a2.896 2.896 0 01-.494-1.681 3.09 3.09 0 011.097-2.415 2.472 2.472 0 011.153-.54v-.068a2.25 2.25 0 01-1.33-.938 2.84 2.84 0 01-.488-1.653 2.807 2.807 0 01.449-1.585 3.158 3.158 0 011.25-1.103c.534-.268 1.142-.403 1.824-.403.674 0 1.276.135 1.806.403.531.269.947.637 1.25 1.103.307.466.462.994.466 1.585a2.883 2.883 0 01-.505 1.653c-.33.481-.767.794-1.313.938v.068c.421.076.799.256 1.136.54.338.28.606.63.807 1.051.201.417.303.871.307 1.364a2.94 2.94 0 01-.511 1.681c-.334.489-.798.874-1.392 1.154-.591.276-1.275.415-2.051.415zm0-1.25c.526 0 .981-.086 1.363-.256.383-.171.678-.411.887-.722.208-.31.314-.674.318-1.091a2.097 2.097 0 00-.341-1.164 2.32 2.32 0 00-.915-.796 2.875 2.875 0 00-1.312-.29c-.497 0-.94.097-1.33.29a2.32 2.32 0 00-.915.796c-.22.337-.327.725-.324 1.164-.003.417.097.781.301 1.091.209.311.506.551.893.722.386.17.844.256 1.375.256zm0-5.523a2.37 2.37 0 001.107-.25c.326-.167.582-.4.768-.699.185-.299.28-.65.284-1.051a1.944 1.944 0 00-.279-1.029 1.812 1.812 0 00-.755-.681 2.46 2.46 0 00-1.125-.245c-.436 0-.817.082-1.143.245a1.765 1.765 0 00-.755.681 1.909 1.909 0 00-.262 1.029c-.003.401.086.752.267 1.051.186.299.442.532.768.699.325.167.7.25 1.125.25zm6.132 6.613v-1.022l3.841-4.205c.45-.492.821-.92 1.113-1.284.292-.367.508-.712.648-1.034.144-.326.216-.667.216-1.023 0-.409-.099-.763-.296-1.062a1.917 1.917 0 00-.795-.693 2.577 2.577 0 00-1.136-.245c-.447 0-.838.093-1.171.279a1.92 1.92 0 00-.767.767c-.178.329-.267.716-.267 1.159h-1.341c0-.682.157-1.28.472-1.796a3.272 3.272 0 011.284-1.204c.545-.288 1.157-.432 1.835-.432.682 0 1.286.144 1.812.432.527.288.94.676 1.239 1.165a3.06 3.06 0 01.449 1.63c0 .428-.078.847-.233 1.256-.152.405-.417.858-.795 1.358-.375.496-.896 1.102-1.563 1.818l-2.614 2.796v.09h5.41V276h-7.341zm13.483.16c-.857 0-1.586-.233-2.188-.699-.602-.47-1.062-1.15-1.381-2.04-.318-.894-.477-1.974-.477-3.239 0-1.257.159-2.331.477-3.221.322-.894.784-1.576 1.387-2.046.606-.473 1.333-.71 2.182-.71.848 0 1.573.237 2.176.71.606.47 1.068 1.152 1.386 2.046.322.89.483 1.964.483 3.221 0 1.265-.159 2.345-.477 3.239-.318.89-.779 1.57-1.381 2.04-.602.466-1.331.699-2.187.699zm0-1.25c.848 0 1.507-.41 1.977-1.228.47-.818.704-1.985.704-3.5 0-1.007-.108-1.865-.323-2.574-.213-.708-.519-1.248-.921-1.619a2.033 2.033 0 00-1.437-.557c-.841 0-1.499.415-1.972 1.245-.474.825-.71 1.994-.71 3.505 0 1.008.106 1.864.318 2.568.212.705.517 1.241.915 1.608.401.368.884.552 1.449.552zm10.136 1.25c-.75 0-1.419-.129-2.006-.387-.583-.257-1.047-.615-1.392-1.074a2.891 2.891 0 01-.557-1.608h1.432c.03.375.159.699.387.972.227.269.524.477.892.625.367.148.774.222 1.221.222.5 0 .943-.088 1.33-.262.386-.174.689-.416.909-.727.22-.311.329-.671.329-1.08 0-.428-.106-.805-.318-1.13-.212-.33-.523-.587-.932-.773-.409-.186-.909-.278-1.5-.278h-.931v-1.25h.931c.462 0 .868-.084 1.216-.25a1.887 1.887 0 001.125-1.773c0-.394-.087-.737-.261-1.029a1.792 1.792 0 00-.739-.681c-.314-.163-.685-.245-1.113-.245-.402 0-.781.074-1.137.222a2.11 2.11 0 00-.863.631 1.637 1.637 0 00-.364.988h-1.364a2.77 2.77 0 01.552-1.602 3.468 3.468 0 011.352-1.08 4.375 4.375 0 011.846-.386c.72 0 1.337.146 1.853.438.515.287.911.668 1.187 1.142.277.473.415.984.415 1.534 0 .655-.172 1.214-.517 1.676-.341.462-.805.782-1.392.96v.091c.735.121 1.309.434 1.721.937.413.5.62 1.12.62 1.858 0 .633-.173 1.201-.517 1.705-.341.5-.807.894-1.398 1.182-.591.288-1.263.432-2.017.432zm9.96-11.955c.477.004.955.095 1.432.273a3.49 3.49 0 011.307.886c.394.409.71.968.949 1.676.238.709.358 1.597.358 2.665 0 1.034-.099 1.953-.296 2.756-.193.799-.473 1.473-.841 2.022a3.72 3.72 0 01-1.329 1.25c-.519.285-1.106.427-1.762.427-.651 0-1.233-.129-1.744-.387a3.42 3.42 0 01-1.25-1.085 3.781 3.781 0 01-.619-1.619h1.386c.125.534.373.975.744 1.324.375.344.87.517 1.483.517.898 0 1.606-.392 2.125-1.177.523-.784.784-1.892.784-3.323h-.09a3.601 3.601 0 01-.756.823c-.292.232-.616.41-.972.535a3.405 3.405 0 01-1.136.187 3.538 3.538 0 01-1.835-.494 3.753 3.753 0 01-1.33-1.37c-.329-.583-.494-1.25-.494-2 0-.712.159-1.363.477-1.954a3.699 3.699 0 011.352-1.421c.584-.352 1.269-.522 2.057-.511zm0 1.25c-.477 0-.907.119-1.29.358-.378.235-.68.553-.903.955-.22.397-.33.839-.33 1.323 0 .485.106.927.319 1.324.216.394.509.709.88.943a2.38 2.38 0 001.279.347c.36 0 .695-.07 1.005-.21.311-.144.582-.339.813-.585a2.85 2.85 0 00.551-.847c.133-.318.199-.65.199-.994 0-.455-.11-.881-.33-1.279a2.631 2.631 0 00-.897-.966 2.328 2.328 0 00-1.296-.369zm9.985-1.25a4.17 4.17 0 011.431.273c.478.178.913.473 1.307.886.394.409.71.968.949 1.676.239.709.358 1.597.358 2.665 0 1.034-.099 1.953-.295 2.756-.194.799-.474 1.473-.841 2.022-.364.55-.807.966-1.33 1.25-.519.285-1.106.427-1.761.427-.652 0-1.233-.129-1.745-.387a3.428 3.428 0 01-1.25-1.085 3.781 3.781 0 01-.619-1.619h1.386c.125.534.374.975.745 1.324.375.344.869.517 1.483.517.897 0 1.606-.392 2.125-1.177.522-.784.784-1.892.784-3.323h-.091a3.557 3.557 0 01-.756.823c-.291.232-.615.41-.971.535a3.407 3.407 0 01-1.137.187 3.543 3.543 0 01-1.835-.494 3.76 3.76 0 01-1.33-1.37c-.329-.583-.494-1.25-.494-2 0-.712.159-1.363.477-1.954a3.694 3.694 0 011.353-1.421c.583-.352 1.269-.522 2.057-.511zm0 1.25c-.478 0-.908.119-1.29.358-.379.235-.68.553-.904.955a2.696 2.696 0 00-.329 1.323c0 .485.106.927.318 1.324.216.394.509.709.881.943.375.232.801.347 1.278.347.36 0 .695-.07 1.006-.21.31-.144.581-.339.812-.585a2.83 2.83 0 00.551-.847 2.611 2.611 0 00-.13-2.273 2.626 2.626 0 00-.898-.966 2.327 2.327 0 00-1.295-.369zM169.409 290v-11.636h1.409v10.386h5.409V290h-6.818zm8.978 0v-8.727h1.341V290h-1.341zm.682-10.181a.953.953 0 01-.676-.267.856.856 0 01-.278-.642c0-.25.092-.464.278-.642a.954.954 0 01.676-.268c.261 0 .485.09.671.268a.851.851 0 01.284.642c0 .25-.095.464-.284.642a.936.936 0 01-.671.267zm7.071 1.454v1.137h-4.523v-1.137h4.523zm-3.205-2.091h1.341v8.318c0 .379.055.663.165.853.113.185.257.31.432.375.178.06.365.091.562.091.148 0 .269-.008.364-.023l.227-.046.273 1.205a2.74 2.74 0 01-.381.102 2.792 2.792 0 01-.619.057c-.379 0-.75-.081-1.114-.244a2.212 2.212 0 01-.898-.745c-.235-.333-.352-.753-.352-1.261v-8.682zm8.947 11c-.841 0-1.566-.185-2.176-.557a3.738 3.738 0 01-1.404-1.568c-.325-.674-.488-1.458-.488-2.352 0-.894.163-1.682.488-2.364.33-.685.788-1.219 1.375-1.602.591-.386 1.281-.579 2.069-.579.454 0 .903.075 1.346.227.443.151.847.398 1.21.738.364.338.654.785.87 1.341.216.557.324 1.243.324 2.057v.568h-6.728v-1.159h5.364a2.86 2.86 0 00-.295-1.318 2.238 2.238 0 00-.83-.915c-.356-.223-.777-.335-1.261-.335-.534 0-.997.133-1.387.398a2.619 2.619 0 00-.892 1.023c-.208.42-.312.871-.312 1.352v.773c0 .659.113 1.217.341 1.676.231.454.551.801.96 1.039.409.235.884.353 1.426.353.352 0 .67-.049.955-.148a2.04 2.04 0 00.744-.455c.208-.204.369-.458.483-.761l1.295.364a2.867 2.867 0 01-.687 1.159c-.322.329-.72.587-1.193.773a4.447 4.447 0 01-1.597.272zm9.359 0c-.818 0-1.523-.193-2.114-.579a3.779 3.779 0 01-1.363-1.597c-.319-.678-.478-1.452-.478-2.324 0-.886.163-1.668.489-2.346.329-.682.788-1.214 1.375-1.597.591-.386 1.28-.579 2.068-.579.614 0 1.167.113 1.659.34.493.228.896.546 1.21.955.315.409.51.886.586 1.432h-1.341c-.103-.398-.33-.75-.682-1.057-.349-.311-.818-.466-1.409-.466-.523 0-.981.136-1.375.409-.39.269-.695.65-.915 1.142-.216.489-.324 1.063-.324 1.722 0 .674.106 1.261.318 1.761.216.5.519.888.909 1.165.394.277.857.415 1.387.415a2.4 2.4 0 00.949-.182c.284-.121.524-.296.721-.523.197-.227.337-.5.421-.818h1.341a3.114 3.114 0 01-.563 1.392 3.133 3.133 0 01-1.176.977c-.485.239-1.049.358-1.693.358zm9.097 0c-.788 0-1.479-.187-2.074-.562-.59-.375-1.053-.9-1.386-1.574-.329-.674-.494-1.462-.494-2.364 0-.909.165-1.702.494-2.38.333-.678.796-1.205 1.386-1.58.595-.375 1.286-.562 2.074-.562.788 0 1.478.187 2.069.562.594.375 1.056.902 1.386 1.58.333.678.5 1.471.5 2.38 0 .902-.167 1.69-.5 2.364-.33.674-.792 1.199-1.386 1.574-.591.375-1.281.562-2.069.562zm0-1.204c.599 0 1.091-.154 1.478-.46.386-.307.672-.711.858-1.211.185-.5.278-1.041.278-1.625 0-.583-.093-1.127-.278-1.63a2.757 2.757 0 00-.858-1.222c-.387-.311-.879-.466-1.478-.466-.598 0-1.091.155-1.477.466a2.757 2.757 0 00-.858 1.222 4.689 4.689 0 00-.278 1.63c0 .584.093 1.125.278 1.625.186.5.472.904.858 1.211.386.306.879.46 1.477.46zM216.5 290v-8.727h1.341V290H216.5zm.682-10.181a.955.955 0 01-.677-.267.86.86 0 01-.278-.642.86.86 0 01.278-.642.956.956 0 01.677-.268c.261 0 .484.09.67.268a.851.851 0 01.284.642c0 .25-.095.464-.284.642a.934.934 0 01-.67.267zm4.616 4.931V290h-1.341v-8.727h1.295v1.364h.114c.204-.443.515-.799.932-1.068.416-.273.954-.409 1.613-.409.591 0 1.108.121 1.551.363.444.239.788.602 1.034 1.091.247.485.37 1.099.37 1.841V290h-1.341v-5.454c0-.686-.178-1.22-.534-1.602-.356-.387-.845-.58-1.466-.58-.428 0-.811.093-1.148.279a1.995 1.995 0 00-.79.812c-.193.356-.289.788-.289 1.295z" fill="#F2F2F2"/><path d="M169.264 266v-14.545h3.075v12.01h6.236V266h-9.311zm8.977-12.009v-2.536h11.947v2.536h-4.454V266h-3.039v-12.009h-4.454zm26.084 2.556h-3.111a3.047 3.047 0 00-.348-1.072 2.73 2.73 0 00-.675-.81 2.976 2.976 0 00-.952-.511 3.649 3.649 0 00-1.157-.178c-.753 0-1.409.187-1.968.561-.558.37-.992.91-1.299 1.62-.308.705-.462 1.562-.462 2.571 0 1.037.154 1.908.462 2.613.312.706.748 1.239 1.306 1.598.559.36 1.205.54 1.939.54.412 0 .793-.054 1.144-.163.355-.109.67-.268.944-.476.275-.213.502-.471.682-.774.185-.303.313-.649.384-1.037l3.111.014a5.811 5.811 0 01-1.89 3.587 6.048 6.048 0 01-1.917 1.15c-.739.28-1.575.419-2.507.419-1.298 0-2.458-.293-3.48-.88-1.018-.587-1.823-1.437-2.415-2.55-.587-1.113-.881-2.46-.881-4.041 0-1.586.298-2.936.895-4.049.597-1.112 1.406-1.96 2.429-2.542 1.023-.587 2.173-.881 3.452-.881.842 0 1.624.119 2.343.355a5.957 5.957 0 011.925 1.037 5.348 5.348 0 011.364 1.655c.355.653.582 1.402.682 2.244z" fill="#fff"/><path d="M151.891 271.001c0 10.987-8.907 19.894-19.894 19.894-10.988 0-19.895-8.907-19.895-19.894 0-10.988 8.907-19.895 19.895-19.895 10.987 0 19.894 8.907 19.894 19.895" fill="#59C19C"/><path d="M131.301 274.348l.893-3.361 2.113-.772.526-1.975-.018-.049-2.08.76 1.498-5.643h-4.25l-1.96 7.364-1.636.598-.541 2.036 1.635-.597-1.155 4.34h11.312l.725-2.701h-7.062" fill="#fff"/><defs><filter id="filter0_b_1_133" x="68" y="-4" width="618" height="342" filterUnits="userSpaceOnUse" color-interpolation-filters="sRGB"><feFlood flood-opacity="0" result="BackgroundImageFix"/><feGaussianBlur in="BackgroundImageFix" stdDeviation="2"/><feComposite in2="SourceAlpha" operator="in" result="effect1_backgroundBlur_1_133"/><feBlend in="SourceGraphic" in2="effect1_backgroundBlur_1_133" result="shape"/></filter><filter id="filter1_d_1_133" x="-80" y="84" width="770" height="239" filterUnits="userSpaceOnUse" color-interpolation-filters="sRGB"><feFlood flood-opacity="0" result="BackgroundImageFix"/><feColorMatrix in="SourceAlpha" values="0 0 0 0 0 0 0 0 0 0 0 0 0 0 0 0 0 0 127 0" result="hardAlpha"/><feOffset dy="20"/><feGaussianBlur stdDeviation="40"/><feColorMatrix values="0 0 0 0 0.211765 0 0 0 0 0.443137 0 0 0 0 0.913725 0 0 0 0.1 0"/><feBlend in2="BackgroundImageFix" result="effect1_dropShadow_1_133"/><feBlend in="SourceGraphic" in2="effect1_dropShadow_1_133" result="shape"/></filter><linearGradient id="paint0_linear_1_133" x1="131.989" y1="75.991" x2="131.989" y2="115.996" gradientUnits="userSpaceOnUse"><stop stop-color="#F9AA4B"/><stop offset="1" stop-color="#F7931A"/></linearGradient><clipPath id="clip0_1_133"><path fill="#fff" transform="translate(112 76)" d="M0 0h40v40H0z"/></clipPath></defs></svg>