<svg width="25" height="24" viewBox="0 0 25 24" fill="none" xmlns="http://www.w3.org/2000/svg">
<path d="M2.92966 14.954L1.06506 14.5426C0.518573 15.6452 -3.05176e-05 16.8837 -3.05176e-05 18.3105C-3.05176e-05 19.7101 0.497577 20.9336 1.06506 22.0785L7.37302 20.687V23.4312L9.57028 22.3325L11.7675 23.4312V20.6884L18.0263 22.0792C18.5685 20.9853 19.0918 19.7435 19.0918 18.3105C19.0918 18.0636 19.0735 17.8177 19.0428 17.5781H25V0L2.92966 0V14.954ZM1.90085 20.394C1.71032 19.8902 1.46481 19.0898 1.46481 18.3105C1.46481 17.5312 1.71037 16.7307 1.90085 16.227L7.37302 17.4342V19.1869L1.90085 20.394ZM10.3027 21.061L9.57028 20.6948L8.83786 21.061V17.5781H10.3027V21.061ZM17.1912 20.3931L11.7675 19.1878V17.4332L17.1912 16.2279C17.3817 16.7318 17.6269 17.5317 17.6269 18.3105C17.6269 19.0895 17.3817 19.8895 17.1912 20.3931ZM23.5351 1.46484V16.1133H18.7037C18.4636 15.3788 18.2701 15.0319 18.0263 14.5418L10.9548 16.1133H8.18532L4.3945 15.277V1.46484H23.5351Z" fill="white"/>
<path d="M8.83786 2.92969H19.0918V4.39453H8.83786V2.92969Z" fill="white"/>
<path d="M5.85934 8.78906H22.0703V10.2539H5.85934V8.78906Z" fill="white"/>
<path d="M8.83786 11.7188H19.0918V13.1836H8.83786V11.7188Z" fill="white"/>
<path d="M10.3027 5.85938H11.7675V7.32422H10.3027V5.85938Z" fill="white"/>
<path d="M13.2324 5.85938H14.6972V7.32422H13.2324V5.85938Z" fill="white"/>
<path d="M16.1621 5.85938H17.6269V7.32422H16.1621V5.85938Z" fill="white"/>
</svg>
