<svg width="21" height="25" viewBox="0 0 21 25" fill="none" xmlns="http://www.w3.org/2000/svg">
<path d="M17.7169 16.333L16.2496 15.9022L13.0574 13.8172V13.3394C13.9817 12.6423 14.6163 11.5767 14.7343 10.3553C15.1978 10.2807 15.5529 9.87789 15.5529 9.39371V8.07999C15.5529 8.07491 15.5524 8.06993 15.5522 8.06486V6.4007C15.7368 6.26847 15.854 6.05309 15.854 5.81149V4.28854L18.057 3.91329C18.4191 3.85162 18.6794 3.56407 18.705 3.19772C18.7305 2.83136 18.5126 2.51046 18.1626 2.39918L10.736 0.0369751C10.581 -0.0123413 10.4173 -0.0122925 10.2625 0.0369263L2.83575 2.39918C2.4858 2.51046 2.26783 2.83136 2.29337 3.19767C2.30958 3.43043 2.42081 3.63112 2.59249 3.76256V5.75411H2.57433C2.15612 5.75411 1.81588 6.09435 1.81588 6.51256V7.50113L1.32628 10.3748C1.24166 10.8718 1.62448 11.3267 2.12985 11.3267H3.78751C4.29176 11.3267 4.67589 10.8729 4.59108 10.3747L4.10148 7.50113V6.51256C4.10148 6.09435 3.76124 5.75411 3.34303 5.75411H3.32491V3.97858L5.14591 4.28873V5.81149C5.14591 6.05206 5.26256 6.2671 5.44635 6.39952L5.44703 8.08014V9.39371C5.44703 9.87794 5.80216 10.2807 6.26569 10.3553C6.38361 11.576 7.01759 12.6411 7.94093 13.3383V13.8183L4.74943 15.9029L3.28336 16.3332C1.71456 16.7937 0.606848 18.2339 0.606848 19.9082V20.9996C0.606848 21.2018 0.770764 21.3658 0.973059 21.3658C1.17535 21.3658 1.33927 21.2019 1.33927 20.9996V19.9082C1.33927 18.5886 2.2235 17.4075 3.48966 17.0359L4.85568 16.635L10.313 19.8778C10.4238 19.9436 10.5704 19.9471 10.6871 19.8778L16.1448 16.6348L17.5107 17.0358C18.7766 17.4074 19.6609 18.5885 19.6609 19.9079V23.4449C19.6609 23.8986 19.2918 24.2677 18.8381 24.2677H17.224V22.6892C17.224 22.4869 17.0601 22.323 16.8578 22.323C16.6555 22.323 16.4916 22.4869 16.4916 22.6892V24.2677H4.5068V22.6892C4.5068 22.4869 4.34288 22.323 4.14059 22.323C3.93829 22.323 3.77438 22.4869 3.77438 22.6892V24.2677H2.16193C1.70826 24.2677 1.33917 23.8986 1.33917 23.4449V22.7114C1.33917 22.5092 1.17526 22.3452 0.972961 22.3452C0.770667 22.3452 0.60675 22.5091 0.60675 22.7114V23.4449C0.60675 24.3024 1.30436 25 2.16188 25H18.838C19.6955 25 20.3931 24.3024 20.3931 23.4449V19.9079C20.3931 18.2731 19.3232 16.8046 17.7169 16.333ZM3.78746 10.5943H2.12985C2.07863 10.5943 2.03956 10.5485 2.04825 10.4977L2.49113 7.8983H3.42618L3.86906 10.4977C3.8777 10.5484 3.83893 10.5943 3.78746 10.5943ZM3.36906 6.51256V7.16593H2.54821V6.51256C2.54821 6.49816 2.55988 6.48649 2.57428 6.48649H3.34293C3.35739 6.48644 3.36906 6.49816 3.36906 6.51256ZM9.19025 18.2213L9.336 18.4453L5.59728 16.2237L7.97038 14.6737C8.07799 15.9364 8.4942 17.1515 9.19025 18.2213ZM9.18771 16.6404C10.0497 16.7629 10.9498 16.763 11.8122 16.6404C11.6456 17.0505 11.4402 17.4462 11.1958 17.8219L10.5 18.8914L9.80412 17.8219C9.55973 17.4462 9.35436 17.0505 9.18771 16.6404ZM11.8097 18.2213C12.5057 17.1515 12.9219 15.9364 13.0295 14.6737L15.4026 16.2237L11.6639 18.4453L11.8097 18.2213ZM13.9518 6.53707H14.8198V7.71373H14.389C14.1479 7.71373 13.9518 7.51764 13.9518 7.27657V6.53707H13.9518ZM3.05773 3.09713L10.4845 0.734827C10.4941 0.731799 10.5043 0.73175 10.514 0.734876L17.9407 3.09713C17.9561 3.10201 17.9771 3.10865 17.9744 3.14679C17.9717 3.18488 17.95 3.18854 17.9341 3.19127L15.4786 3.60948L14.5568 3.49547C14.3562 3.47062 14.1733 3.61329 14.1484 3.81398C14.1236 4.01471 14.2662 4.19752 14.4669 4.22233L15.1217 4.30333V5.8047L5.87828 5.80436V4.30328L9.66769 3.83439C10.2196 3.76617 10.7792 3.76617 11.3308 3.83439L12.765 4.01178C12.9657 4.03663 13.1486 3.89401 13.1734 3.69332C13.1983 3.49259 13.0556 3.30978 12.8549 3.28492L11.4207 3.10753C10.8095 3.0319 10.1894 3.0319 9.5778 3.10753L5.52047 3.60958L3.06427 3.19127C3.04835 3.18854 3.02662 3.18488 3.02394 3.14679C3.0213 3.10865 3.04235 3.10197 3.05773 3.09713ZM6.17921 7.71373L6.17872 6.53707H7.04811V7.27662C7.04811 7.51764 6.85202 7.71378 6.6109 7.71378H6.17921V7.71373ZM6.98522 10.1671C6.96637 9.86886 6.71852 9.63527 6.42101 9.63527C6.28776 9.63527 6.17936 9.52687 6.17936 9.39366V8.44615H6.6109C7.25577 8.44615 7.78048 7.9215 7.78048 7.27662V6.53707H13.2194V7.27662C13.2194 7.9215 13.7441 8.44615 14.389 8.44615H14.8205V9.39366C14.8205 9.52687 14.7121 9.63527 14.5789 9.63527C14.2814 9.63527 14.0335 9.86886 14.0147 10.1671C13.898 12.0162 12.3542 13.4647 10.4999 13.4647C8.64567 13.4647 7.10187 12.0162 6.98522 10.1671ZM10.5 14.197C11.1513 14.197 11.7703 14.0481 12.3251 13.7833V14.0154C12.3251 14.6415 12.2406 15.2591 12.0779 15.8548C11.0827 16.0446 9.95758 16.0523 8.92199 15.8548C8.75934 15.2592 8.67487 14.6416 8.67487 14.0154C8.67487 14.0076 8.67379 14.0001 8.6733 13.9924C8.67321 13.9909 8.67335 13.9894 8.67325 13.9879V13.7826C9.22838 14.0478 9.84801 14.197 10.5 14.197Z" fill="white"/>
</svg>
