<svg xmlns="http://www.w3.org/2000/svg" fill="none" viewBox="0 0 24 24" height="48" width="48"><path stroke="#000000" stroke-linejoin="round" d="M9 12V7.5H12.75C13.9926 7.5 15 8.50736 15 9.75C15 10.9926 13.9926 12 12.75 12H9Z"></path><path stroke="#000000" stroke-linejoin="round" d="M9 16.5V12H13.75C14.9926 12 16 13.0074 16 14.25C16 15.4926 14.9926 16.5 13.75 16.5H9Z"></path><path stroke="#000000" stroke-linejoin="round" d="M4 8.30742V5C4 4.44772 4.44772 4 5 4H19C19.5523 4 20 4.44772 20 5V8.30742C20 9.93364 20.9901 11.396 22.5 12C20.9901 12.604 20 14.0664 20 15.6926V19C20 19.5523 19.5523 20 19 20H5C4.44772 20 4 19.5523 4 19V15.6926C4 14.0664 3.00991 12.604 1.5 12C3.00991 11.396 4 9.93364 4 8.30742Z"></path></svg>