<svg viewBox="0 0 24 24" xmlns="http://www.w3.org/2000/svg" height="48" width="48"><path d="M5.5 11.504L5.5 19.504" fill="none" stroke="#000000" stroke-linecap="round" stroke-linejoin="round"></path><path d="M1.5 19.504L1.5 11.504" fill="none" stroke="#000000" stroke-linecap="round" stroke-linejoin="round"></path><path d="M1.5 15.504L5.5 15.504" fill="none" stroke="#000000" stroke-linecap="round" stroke-linejoin="round"></path><path d="M13.5 19.504L13.5 11.504 15.5 15.504 17.5 11.504 17.5 19.504" fill="none" stroke="#000000" stroke-linecap="round" stroke-linejoin="round"></path><path d="M19.5,11.5V18A1.5,1.5,0,0,0,21,19.5h2.5" fill="none" stroke="#000000" stroke-linecap="round" stroke-linejoin="round"></path><path d="M7.5 11.504L11.5 11.504" fill="none" stroke="#000000" stroke-linecap="round" stroke-linejoin="round"></path><path d="M9.5 11.504L9.5 19.504" fill="none" stroke="#000000" stroke-linecap="round" stroke-linejoin="round"></path><path d="M23.5,22.5a1,1,0,0,1-1,1H1.5a1,1,0,0,1-1-1" fill="none" stroke="#000000" stroke-linecap="round" stroke-linejoin="round"></path><path d="M.5,8.5v-7a1,1,0,0,1,1-1h21a1,1,0,0,1,1,1v7" fill="none" stroke="#000000" stroke-linecap="round" stroke-linejoin="round"></path></svg>