<svg xmlns="http://www.w3.org/2000/svg" fill="none" viewBox="0 0 24 24" height="48" width="48"><path stroke="#000000" stroke-linecap="round" stroke-linejoin="round" d="M15.75 12L18.75 15L15.75 18"></path><path stroke="#000000" stroke-linecap="round" stroke-linejoin="round" d="M8.25 12L5.25 15L8.25 18"></path><path stroke="#000000" stroke-linecap="round" stroke-linejoin="round" d="M13.5 12L10.5 18"></path><path stroke="#000000" stroke-linecap="round" stroke-linejoin="round" d="M21.5 3H2.5C1.39543 3 0.5 3.89543 0.5 5V19C0.5 20.1046 1.39543 21 2.5 21H21.5C22.6046 21 23.5 20.1046 23.5 19V5C23.5 3.89543 22.6046 3 21.5 3Z"></path><path stroke="#000000" stroke-linecap="round" stroke-linejoin="round" d="M0.5 8H23.5"></path><path stroke="#000000" d="M4 5.75C3.86193 5.75 3.75 5.63807 3.75 5.5C3.75 5.36193 3.86193 5.25 4 5.25"></path><path stroke="#000000" d="M4 5.75C4.13807 5.75 4.25 5.63807 4.25 5.5C4.25 5.36193 4.13807 5.25 4 5.25"></path><path stroke="#000000" d="M7 5.75C6.86193 5.75 6.75 5.63807 6.75 5.5C6.75 5.36193 6.86193 5.25 7 5.25"></path><path stroke="#000000" d="M7 5.75C7.13807 5.75 7.25 5.63807 7.25 5.5C7.25 5.36193 7.13807 5.25 7 5.25"></path><g><path stroke="#000000" d="M10 5.75C9.86193 5.75 9.75 5.63807 9.75 5.5C9.75 5.36193 9.86193 5.25 10 5.25"></path><path stroke="#000000" d="M10 5.75C10.1381 5.75 10.25 5.63807 10.25 5.5C10.25 5.36193 10.1381 5.25 10 5.25"></path></g></svg>