<svg xmlns="http://www.w3.org/2000/svg" viewBox="0 0 24 24" height="48" width="48"><defs></defs><title>sass</title><path d="M5.738,10.122s1.046,1.6,4.38.556,5-4.422,4.283-6.048C13.1,1.677.5,4.517.5,10.579c0,1.944,3.473,4.054,4.584,4.839S5.79,19.2,3.8,20.263s-3.675-1.109-1.526-2.82A33.339,33.339,0,0,1,8.24,14.068" fill="none" stroke="#000000" stroke-linecap="round" stroke-linejoin="round"></path><path d="M10.814,14.592c.324-1.222-.776-2.907-2.246-1.024s-.852,4.759-.132,4.855C8.932,18.489,10.154,17.086,10.814,14.592Z" fill="none" stroke="#000000" stroke-linecap="round" stroke-linejoin="round"></path><path d="M10.73,14.893c-.232,1.534-.168,3.445.251,3.533S14.2,11.5,14.2,11.5c-.511,1.26.108,3.175.8,4.418a1.607,1.607,0,0,1-1.405,2.337c-.918.013,1.486-2.783,2.189-4.08s1.472-3.161,1.472-3.161c-.466,1.08.381,3.242,1.271,4.4s-.946,2.136-1.324,1.757.027-3.288,3.861-3.181c3.191.089,2.781,3.315,1.446,3.6" fill="none" stroke="#000000" stroke-linecap="round" stroke-linejoin="round"></path></svg>