<svg width="19" height="20" viewBox="0 0 19 20" fill="none" xmlns="http://www.w3.org/2000/svg">
<path d="M-3.09547e-05 9.99954C-3.07132e-05 15.5245 4.36164 19.9995 9.74104 19.9995C14.0457 19.9995 17.6961 17.1345 18.9832 13.162C19.0749 12.662 18.7733 12.4787 18.5148 12.4787C18.2835 12.4787 17.6705 12.487 16.8585 12.4912C17.4458 15.2729 15.5516 15.8595 15.5516 15.8595C14.4274 16.3145 14.1267 16.972 14.1267 16.972C13.5228 17.8779 13.5352 16.902 13.5352 16.902C13.6029 15.8979 14.5389 15.3704 14.5389 15.3704C16.0283 14.4787 15.5979 13.0295 15.3493 12.4579C14.719 12.3679 14.2902 12.1104 14.0465 11.8245C13.8028 14.0454 12.9652 16.3795 9.23301 16.3795C8.16985 16.3795 7.30082 15.992 6.6193 15.3504C6.37313 15.4629 5.38267 15.8004 4.04113 15.2629C4.04113 15.2629 3.78009 14.4254 5.03985 12.5129C4.82342 11.7129 4.71603 10.8629 4.71107 10.0129C4.71603 9.16287 4.82342 8.31288 5.03985 7.51288C3.78009 5.61288 4.04113 4.77538 4.04113 4.77538C5.38267 4.23788 6.37313 4.57538 6.6193 4.67538C7.30082 4.03788 8.16985 3.65038 9.233 3.65038C12.9751 3.65038 13.7987 5.98787 14.0383 8.21287C14.3307 7.86287 14.928 7.53787 15.8408 7.53787C17.1443 7.53787 18.1918 7.55038 18.5082 7.55038C18.7634 7.55038 19.0683 7.37537 18.9708 6.86288C17.692 2.86204 14.0391 -0.000458377 9.74104 -0.000458189C4.36164 -0.000457954 -3.11961e-05 4.47704 -3.09547e-05 9.99954Z" fill="white"/>
</svg>
