<svg width="30" height="30" viewBox="0 0 30 30" fill="none" xmlns="http://www.w3.org/2000/svg">
<path d="M30 15C30 6.71375 23.2863 0 15 0C6.71375 0 0 6.71375 0 15C0 23.2863 6.71375 30 15 30C23.2863 30 30 23.2863 30 15ZM14.675 23.1362L9.09875 8.67375C8.85625 8.0025 9.2625 7.41625 10.2775 7.63375L10.2762 7.6325L21.8775 10.095C22.7 10.2775 22.9 10.7663 22.5125 11.45L19.7487 15.2L21.4913 17.0088C21.6913 17.2088 21.86 17.3775 21.86 17.765L18.0438 17.4987L11.765 10.5487C11.4987 10.2463 11.3488 10.6163 11.6138 11.015L17.0212 19.6037L15.8663 23.3063C15.6112 24.11 15.0625 24.1275 14.675 23.1362Z" fill="white"/>
</svg>
